<?xml version="1.0" standalone="no"?>
<!DOCTYPE svg PUBLIC "-//W3C//DTD SVG 20010904//EN"
 "http://www.w3.org/TR/2001/REC-SVG-20010904/DTD/svg10.dtd">
<svg version="1.0" xmlns="http://www.w3.org/2000/svg"
 width="360.000000pt" height="360.000000pt" viewBox="0 0 360.000000 360.000000"
 preserveAspectRatio="xMidYMid meet">
<metadata>
Created by potrace 1.14, written by Peter Selinger 2001-2017
</metadata>
<g transform="translate(0.000000,360.000000) scale(0.100000,-0.100000)"
fill="#000000" stroke="none">
<path d="M1757 3138 c-15 -11 -25 -24 -21 -29 3 -5 1 -9 -3 -9 -5 0 -17 -15
-28 -32 -10 -18 -27 -42 -37 -52 -10 -11 -18 -26 -18 -33 0 -7 -3 -13 -7 -13
-5 0 -26 -28 -48 -63 -22 -34 -45 -68 -52 -75 -7 -7 -13 -17 -13 -21 0 -4 -9
-17 -20 -29 -12 -12 -17 -22 -13 -22 4 0 3 -4 -2 -8 -14 -10 -67 -82 -61 -82
3 0 -4 -11 -15 -24 -12 -13 -20 -27 -20 -30 1 -4 -5 -13 -13 -21 -8 -8 -38
-53 -66 -100 -29 -47 -55 -85 -59 -85 -3 0 -15 -18 -25 -40 -11 -22 -23 -40
-28 -40 -4 0 -8 -5 -8 -10 0 -6 -16 -36 -35 -66 -19 -30 -35 -59 -35 -64 0 -6
-4 -10 -10 -10 -5 0 -10 -3 -9 -7 2 -16 -14 -53 -22 -53 -5 0 -9 -9 -9 -20 0
-11 -6 -23 -13 -26 -8 -3 -14 -10 -14 -17 0 -7 -15 -41 -32 -77 -30 -61 -79
-181 -81 -198 0 -4 -6 -25 -12 -47 -6 -22 -11 -46 -9 -52 1 -7 -2 -13 -6 -13
-5 0 -9 -8 -10 -17 -1 -24 -11 -88 -14 -88 -4 0 -11 -91 -13 -192 -1 -62 2
-113 7 -113 4 0 5 -5 1 -11 -3 -6 0 -15 7 -20 9 -6 10 -9 2 -9 -8 0 -9 -9 -3
-30 5 -17 9 -33 9 -35 1 -3 1 -6 2 -7 0 -2 2 -12 4 -23 5 -28 10 -46 22 -75 6
-14 9 -28 6 -32 -2 -5 0 -8 5 -8 9 0 25 -37 23 -53 -1 -4 5 -10 13 -13 8 -3
12 -12 9 -20 -3 -7 2 -17 11 -20 9 -3 14 -10 11 -14 -3 -4 2 -13 10 -20 8 -7
15 -16 15 -21 0 -10 8 -20 99 -115 38 -40 88 -85 112 -100 24 -16 49 -34 56
-40 29 -28 205 -104 288 -125 131 -33 305 -31 430 6 92 27 245 100 245 117 0
5 4 7 8 4 13 -8 166 128 214 191 44 56 122 178 128 198 1 6 7 21 13 35 10 25
14 36 21 68 3 9 5 18 6 20 3 2 3 3 14 57 13 62 15 82 20 198 2 59 1 107 -3
107 -4 0 -7 9 -7 20 0 11 4 20 9 20 5 0 4 6 -2 13 -6 8 -12 35 -13 60 -2 26
-6 47 -9 47 -3 0 -6 6 -7 13 -3 24 -9 52 -14 67 -3 8 -11 35 -18 60 -7 25 -16
50 -22 57 -5 7 -7 17 -3 23 3 5 2 10 -3 10 -5 0 -13 15 -17 33 -10 42 -8 38
-28 73 -9 17 -13 34 -10 38 4 3 1 6 -5 6 -10 0 -28 38 -24 53 1 4 -3 7 -9 7
-5 0 -7 5 -4 10 3 6 1 10 -5 10 -6 0 -8 5 -5 10 3 6 1 10 -4 10 -6 0 -11 7
-11 15 0 8 -4 15 -10 15 -5 0 -10 6 -10 14 0 8 -7 22 -16 30 -12 12 -12 16 -2
16 10 0 9 3 -2 10 -8 5 -15 13 -15 17 0 4 -8 19 -18 33 -39 53 -164 250 -159
250 2 0 -7 12 -22 26 -14 15 -26 31 -26 36 0 5 -9 18 -20 30 -11 12 -20 28
-20 35 0 8 -4 11 -10 8 -5 -3 -10 -1 -10 6 0 6 -20 40 -45 75 -25 34 -45 65
-45 69 0 3 -11 18 -25 33 -14 15 -25 32 -25 38 0 6 -9 19 -20 29 -11 10 -20
24 -20 31 0 7 -4 14 -8 16 -9 3 -90 117 -107 149 -5 11 -13 19 -18 19 -4 0 -6
3 -4 8 3 4 -3 14 -12 24 -15 15 -18 15 -44 -4z"/>
<path d="M655 2512 c-5 -4 -10 -13 -11 -19 -2 -30 -5 -33 -27 -33 -38 0 -41
-14 -5 -26 18 -6 34 -16 34 -22 1 -7 2 -20 3 -29 1 -22 21 -4 25 23 2 12 17
23 42 30 l39 11 -36 8 c-29 5 -38 13 -45 36 -5 16 -13 25 -19 21z"/>
<path d="M536 2353 c-6 -25 -14 -33 -39 -39 l-31 -7 34 -16 c19 -10 34 -23 33
-29 -2 -7 1 -12 7 -12 5 0 6 -8 3 -17 -6 -15 -5 -16 9 -3 9 8 14 18 12 22 -9
15 10 36 39 43 l32 7 -30 10 c-34 12 -47 27 -40 46 3 7 1 11 -4 7 -5 -3 -11 1
-14 7 -2 7 -7 -1 -11 -19z"/>
<path d="M734 2368 c-5 -7 -9 -17 -9 -23 0 -5 -15 -17 -33 -27 l-33 -16 35
-12 c20 -6 35 -14 35 -18 -1 -4 -1 -18 0 -32 l2 -25 13 25 c8 14 12 28 10 32
-2 3 13 12 33 19 l38 13 -35 10 c-26 8 -36 17 -38 36 -5 31 -8 35 -18 18z"/>
<path d="M3069 1883 c-1 -10 -1 -21 0 -26 1 -4 -12 -10 -29 -14 -36 -7 -50
-23 -21 -23 26 0 61 -37 54 -59 -3 -12 -1 -11 11 3 9 11 16 25 16 31 0 7 15
17 33 22 l32 10 -32 13 c-18 6 -34 16 -34 21 -1 5 -2 14 -3 21 -2 19 -26 21
-27 1z"/>
<path d="M2962 1755 c-1 -8 -3 -22 -4 -31 -1 -8 -14 -18 -30 -21 -35 -7 -36
-21 -3 -29 23 -6 30 -15 26 -36 0 -5 4 -8 10 -8 5 0 7 -6 3 -12 -5 -9 -2 -8 9
1 10 7 16 21 15 29 -2 11 10 20 37 28 l40 12 -33 8 c-19 4 -36 13 -39 20 -3 8
-9 12 -13 9 -5 -3 -6 3 -3 14 3 10 1 21 -4 24 -6 4 -10 0 -11 -8z"/>
<path d="M3151 1737 c-7 -20 -16 -35 -19 -33 -4 2 -18 -2 -31 -9 l-25 -13 33
-7 c33 -7 53 -37 43 -65 -5 -13 -4 -13 10 0 9 8 16 17 16 20 -1 29 6 38 35 45
l32 7 -32 14 c-23 10 -35 23 -41 46 l-9 33 -12 -38z"/>
<path d="M549 1173 c-1 -5 -1 -11 0 -15 0 -5 -3 -8 -9 -8 -5 0 -10 -6 -10 -14
0 -8 -15 -20 -32 -27 -32 -12 -32 -12 -8 -16 14 -3 30 -9 35 -14 10 -10 11
-14 14 -46 1 -16 3 -16 14 2 6 11 12 24 12 29 0 9 17 20 50 32 17 6 16 8 -12
16 -30 8 -38 18 -34 41 0 4 -4 7 -10 7 -5 0 -7 5 -4 10 3 6 4 10 1 10 -3 0 -7
-3 -7 -7z"/>
<path d="M426 1014 c-3 -9 -4 -19 -1 -23 2 -5 -15 -14 -38 -21 l-42 -13 37 -9
c26 -7 38 -16 42 -34 8 -30 24 -31 28 -1 2 15 14 26 38 34 30 9 32 12 15 18
-38 13 -50 22 -53 44 -4 25 -17 28 -26 5z"/>
<path d="M616 1015 c-3 -9 -4 -21 -1 -25 3 -5 -10 -12 -30 -16 -48 -9 -52 -20
-10 -28 21 -4 35 -13 35 -21 0 -8 4 -15 10 -15 5 0 7 -8 3 -17 -4 -13 -3 -15
5 -8 6 6 12 19 14 30 2 13 16 24 38 31 30 10 32 12 15 18 -35 13 -50 23 -50
34 0 6 -5 16 -11 22 -8 8 -13 7 -18 -5z"/>
</g>
</svg>
