<svg version="1.1" xmlns="http://www.w3.org/2000/svg" viewBox="0 0 1033.36328125 1282.728515625" width="2066.7265625" height="2565.45703125">
  <!-- svg-source:excalidraw -->
  
  <defs>
    <style>
      @font-face {
        font-family: "Virgil";
        src: url("https://excalidraw.com/Virgil.woff2");
      }
      @font-face {
        font-family: "Cascadia";
        src: url("https://excalidraw.com/Cascadia.woff2");
      }
    </style>
  </defs>
  <g stroke-linecap="round" transform="translate(110.720703125 637.140625) rotate(0 165.259765625 80.712890625)"><path d="M0 0 C0 0, 0 0, 0 0 M0 0 C0 0, 0 0, 0 0 M-0.28 6.15 C1.36 4.97, 2.39 2.42, 4.9 0.57 M-0.38 6.53 C2.09 4.29, 4.09 1.85, 4.92 0.27 M-0.55 11.29 C4.24 8.67, 8.18 3.92, 9.9 -1.08 M-0.48 12.51 C3.39 7.71, 7.23 4.05, 9.97 -0.41 M0.79 19.21 C6.93 11.42, 9.85 3.17, 15.81 0.19 M-0.26 19.02 C5.53 12.05, 12.55 4.82, 15.5 0.38 M0.01 25.83 C9 15.58, 15.31 7.46, 20.41 -0.09 M0.26 23.43 C6.34 17.2, 11.65 11.51, 21.42 0.56 M1.22 29.16 C7.09 21.86, 12.12 18.6, 24.35 -1.15 M-0.53 29.93 C8.94 22.22, 16.64 12.32, 26.99 -0.2 M-0.79 38.2 C6.36 28.26, 16.72 19.13, 32.54 -1.89 M-0.89 36.53 C11.47 24.71, 21.27 11.95, 31.5 -0.48 M0.77 42.53 C12.62 30.1, 24.54 16.84, 38.2 -1.53 M0.93 43.15 C9.79 30.37, 21.21 18.81, 36.68 -0.42 M0.13 48.19 C11.96 35.96, 20.09 25.46, 43.57 -2.05 M0.54 48.67 C15.21 32.5, 30.28 13.72, 42.72 -0.08 M-0.97 55.9 C12.46 42.73, 22.61 29.77, 48.03 -0.66 M0.75 55.28 C14.68 38.89, 27.95 22.56, 46.79 -0.65 M-1.12 60.7 C11.1 46.68, 26.41 33.62, 52.84 -0.21 M0.08 61.3 C20.38 38.05, 40.81 13.48, 53.1 -0.78 M0.81 66.23 C20.57 43.94, 39.95 22.12, 57.33 -1.63 M0.2 67.58 C18.58 45.23, 37.18 24.22, 57.38 0.16 M1.1 72.54 C23.2 44.57, 46.78 20.64, 63.53 1.63 M-0.3 72.52 C23.69 46.31, 46.04 19.13, 62.97 -0.2 M0.71 77.92 C18.73 56.64, 41.3 34.47, 68.43 -0.84 M-1.11 80.01 C13.01 62.84, 27.5 46.85, 69.31 -0.52 M-0.75 83.18 C21.62 60.79, 41.24 40.67, 72.64 1.14 M0.22 84.87 C28.83 53.4, 55.4 19.27, 74.01 -0.04 M1.22 93.25 C24.68 62.61, 46.4 39.39, 80.54 1.94 M-0.24 90.67 C21.71 69.11, 41.18 45.13, 79.31 0.19 M-2.01 97.48 C26.96 67.95, 56.56 34.84, 85.03 1.64 M-0.37 97.06 C29.06 63.54, 57.5 30.57, 84.2 -1.06 M1.32 103.42 C28.47 75.64, 52.09 46.47, 91.68 1.62 M0.75 103.86 C34.3 64.96, 68.05 25.2, 90.9 -0.39 M-1.22 108.71 C29.15 75.47, 58.26 41.65, 95.42 -1.89 M0.72 109.95 C27.91 77.97, 56.12 44.31, 94.89 -0.12 M1.84 115.29 C30.67 77.98, 65.38 37.06, 100.73 1.75 M1.12 115.79 C33.84 75.18, 70 34.71, 101.45 0.48 M1.98 121.05 C34.62 78.49, 72.37 37.2, 106.34 -0.83 M0.12 122.1 C39.45 76.91, 78.88 32.31, 105.71 -1.15 M-1.21 130.1 C27.49 96.52, 55.92 65.53, 109.4 0.54 M-0.2 128.34 C41.43 80.43, 81.48 33.29, 111.15 -0.06 M-0.58 132.59 C24.14 105.09, 46.24 77.3, 117.52 1.88 M-0.02 133.71 C24.92 107.06, 48.59 80.35, 116.99 0.6 M0.01 138.53 C43.06 91.87, 81.15 44.41, 120.25 0.87 M-0.97 141.07 C38.46 94.78, 76.54 49.38, 122.02 0.58 M-0.22 146.08 C42.52 96.74, 87.61 42.27, 126.52 -1.32 M0.24 146.43 C34.87 106.22, 69.44 65.19, 127.36 0.52 M-0.72 151.27 C40.08 104.88, 81.93 59.58, 130.89 0.22 M-0.55 152.67 C35.54 111.28, 70.91 70.62, 132.86 -0.55 M-1.83 159.56 C44.03 105.82, 89.88 55.72, 138.61 -0.05 M-0.87 159.05 C28.97 123.98, 60.41 88.47, 136.88 0.23 M1.8 163.78 C49.16 109.88, 95.85 54.68, 143.01 0.74 M0.85 163.53 C54.95 102.56, 107.1 42.86, 142.57 0.69 M6.87 161.7 C60.98 103, 111.42 41.59, 148.15 0.76 M7.47 163.24 C51.22 112.03, 95.58 61.71, 148.24 -0.44 M11.94 162.9 C60.59 104.32, 112.02 46.03, 154.16 -0.41 M11.96 163.5 C66.78 100.58, 122.19 37.34, 154.2 -0.31 M17.14 161.92 C69.21 101.29, 122.39 40.58, 158.51 0.35 M18.43 162.4 C70.05 104.77, 120.41 45.12, 158.13 -0.07 M22.16 161.65 C56.17 123.37, 89.06 86.39, 166.06 1.55 M22.05 162.05 C77.23 103.41, 130.15 42.04, 163.67 0.18 M29.25 161.68 C80.15 103.83, 133.27 44.11, 169.33 -0.78 M28.09 163.21 C60.05 125.53, 92.67 89.57, 168.84 0.15 M33.99 163.93 C88.51 102.35, 144.03 36.04, 175.92 -0.24 M33.36 162.36 C84.06 105.2, 134.26 47.2, 174.62 -0.74 M38.76 161 C96.42 99.13, 150.2 34.53, 178.38 1.08 M38.29 161.96 C80.71 112.17, 123.32 63.26, 180.34 0.65 M43.56 162.82 C89.78 111.53, 133.97 59.86, 185.14 -1.57 M44.06 162.33 C82.75 116.96, 121.57 72.78, 185.29 0.53 M48.29 164.73 C82.19 124.27, 114.73 85.05, 190.31 0.56 M48.3 163.93 C80.2 123.86, 113.61 85.89, 191.11 0.96 M53.86 163.37 C100.49 109.4, 143.05 58.01, 197.64 0.57 M54.31 162.41 C91.85 119.12, 127.22 78.95, 196.39 -0.79 M57.92 163.79 C107.2 110, 149.67 59.47, 200.85 -0.97 M60.11 163.74 C87.66 129.93, 116.05 96.88, 200.81 0.53 M65.99 163.31 C117.45 104.14, 167.65 45.12, 207.56 -0.69 M65.48 162.96 C110.99 113.24, 153.5 63.31, 206.74 0.5 M70 162.42 C125.97 99.4, 180.23 33.9, 212.62 -0.74 M70.06 163.05 C104 124.34, 138 87.41, 211.14 -0.41 M77.44 161.84 C130.9 97.63, 189.03 34.98, 218.55 0.55 M75.71 163.43 C111.89 122.08, 146.63 80.68, 217.63 -0.52 M79.52 162.94 C113.68 123.35, 147.07 83.83, 222.84 0.27 M81.13 163.12 C124.27 115.76, 165.16 68.25, 223.18 0.1 M87.29 161.33 C122.68 117.75, 160.86 75.11, 227.97 0.3 M86.03 163.18 C139.8 104.09, 192.18 43.58, 228.44 -0.52 M92.72 164.73 C143.2 100, 196.73 41.15, 232.11 -1.01 M90.92 162.93 C144.97 98.83, 200.69 34.91, 233.1 -0.46 M97.97 162.11 C151.55 97.61, 207.38 36.64, 238.53 1.15 M97.79 162.37 C149.47 102.98, 201.89 42.54, 238.63 -0.31 M100.84 162.53 C153.91 105.76, 202.64 45.87, 242.62 -0.94 M102.97 163.62 C142.82 117.8, 182.28 71.5, 243.44 0.58 M106.55 164.23 C145.54 119.75, 186.86 73.82, 248.65 0.49 M108.24 162.87 C141.63 124.84, 173.55 87.62, 249.48 0.03 M113.3 162.11 C150.43 121.9, 186.76 79.56, 252.93 -1.41 M111.95 162.3 C162.62 104.34, 213.26 47.05, 255.28 -0.3 M116.96 162.18 C148.35 126.16, 177.12 93.96, 260.76 0.29 M118.42 162.07 C166.74 109.57, 213.97 55.15, 259.27 -0.44 M124.58 164.58 C180.26 97.91, 237.37 35.7, 266.72 -1.14 M123.74 163.45 C172.29 107.42, 221.15 52.05, 265.65 0.32 M127.72 164.12 C177.4 106.94, 228.21 49.42, 271.68 -1.16 M128.76 162.57 C179.01 106.02, 228.44 48.92, 270.28 -0.41 M133.37 161.16 C164.72 128.25, 194.52 93.28, 277.03 -0.88 M133.58 162.31 C165.36 123.68, 198.24 87.36, 275.31 -0.35 M140.75 162.2 C177.12 120.4, 213.49 77.53, 280.74 0.29 M140.01 162.52 C186 107.55, 232.23 54.05, 280.28 0.04 M144.33 162.83 C172.24 127.74, 203.09 92.84, 285.53 -1.7 M144.41 163.21 C193.84 107.24, 241.58 52.53, 286.24 0.08 M149.05 162.25 C202.34 100.39, 256.14 40.06, 291.48 -1.19 M150.56 161.74 C184.96 125.36, 218.16 86.16, 292.12 0.3 M155.87 163.7 C209.58 98.97, 263.53 38.02, 297.22 0.29 M155.54 163 C185.77 127.15, 216.45 91.17, 297.15 -0.41 M158.84 161.8 C202.07 114.88, 245.31 64.37, 302.95 1.43 M160.2 163.38 C191.63 126.4, 222.61 90.96, 302.4 0.17 M165.41 163.67 C218.03 102.57, 273.56 38.97, 308.23 -1.8 M165.26 162.4 C221.67 98.71, 278.91 34.82, 307.96 -0.46 M169.43 162.82 C221.39 106.34, 269.87 48.3, 311.44 1.75 M170.07 162.99 C214.8 111.93, 258.97 61.6, 312.79 0.66 M178.07 163.22 C230.96 99.05, 285.44 35.46, 318.06 0.54 M176.95 163.35 C231.69 99.91, 288.02 34.25, 318.86 0.39 M181.51 163.99 C210.06 130.05, 241.05 97.82, 322.7 -0.81 M181.41 162.71 C228.08 108.7, 275.98 54.03, 323.96 -0.31 M187.49 161.68 C219.06 130.8, 248.07 94.17, 327.82 -1.93 M187.71 162.93 C231.31 109.29, 276.78 58.07, 329.44 -0.98 M191.05 162.95 C222.01 126.79, 253.89 89.35, 331.43 2.25 M192.01 163.83 C224.33 126.82, 257.34 90.02, 333.36 1.38 M198.55 162.41 C249.39 101.31, 305.08 39.82, 331.23 8.79 M197.99 162.97 C238.3 116.66, 278.65 69.96, 332.37 8.42 M204.61 162.17 C249.24 106.7, 297.81 53.47, 331.64 15.53 M203.56 163.25 C242.37 117.14, 280.15 72.99, 332.58 14.41 M208.02 164.36 C249.89 116.15, 287.68 67.87, 331.23 20 M209.06 162.06 C257.61 105.9, 307.13 49.9, 332.68 19.87 M211.73 164.41 C243.38 130.76, 272.71 96.84, 331.36 28.13 M213.23 162.91 C255.31 115.41, 296.71 67.86, 333.15 25.84 M220.9 162.66 C252.96 120.82, 287.96 82.45, 334.14 31.78 M218.08 162.04 C258.47 117.14, 298.22 73.72, 333.21 31.54 M225.18 161.93 C254.49 124.61, 289.03 90.82, 333.73 36.59 M224.47 162.19 C267.2 115.02, 308.93 67.07, 332.57 39.42 M229.39 163.1 C258.53 128.43, 288.17 94.02, 332.45 44.28 M229.09 163.31 C270.56 118.24, 308.86 72.14, 332.84 43.6 M235.73 162.64 C254.89 138.98, 276.13 116.6, 332.9 52.27 M234.07 162.27 C262.98 129.49, 291.85 96.48, 332.06 50.61 M238.43 164.18 C270.32 126.76, 301.52 94.06, 334.01 55.94 M239.92 161.61 C260.35 138.62, 281.59 115.99, 332.08 57.85 M245.98 164.11 C268.6 138.4, 287.89 110.8, 334.52 64.46 M245.15 163.24 C277.06 124.92, 308.38 88.21, 332.36 62.54 M251.78 163.06 C281.71 126.56, 307.61 94.75, 330.45 70.61 M251.23 163.15 C275.46 132.59, 301.49 104.58, 332.78 69.73 M256.38 163.56 C273.54 142.85, 289.6 123.65, 333.1 75.08 M256.17 163.13 C283.03 130.25, 311.33 98.24, 332.02 73.74 M262.09 161.53 C275.69 146.06, 291.18 128.45, 331.28 80.05 M261.51 161.52 C284.94 136.64, 305.52 111.91, 333.1 81.89 M267.24 163.88 C281.92 148.5, 293.07 132.11, 333.32 85.48 M265.89 162.89 C283.49 142.79, 301.9 120.15, 331.75 87.95 M272.81 164.06 C293.91 135.17, 313.61 110.4, 332.52 94.93 M272.07 162.77 C287.57 143.84, 304.04 125.76, 333.22 92.13 M276.68 163.61 C294.11 144.09, 310.92 126.85, 330.68 99.38 M276.43 163.38 C296.3 139.87, 314.22 119.21, 332.08 100.04 M283.61 164.52 C294.86 149.56, 305.19 136.62, 334.04 103.55 M281.4 163.09 C295.02 149.13, 306.93 134.95, 333.63 105.17 M286.71 162.95 C297.56 149.84, 312.63 137.98, 333.55 109.45 M288.22 162.39 C298.05 151.5, 307.91 140.4, 332.39 111.58 M290.94 161.17 C302.06 155.73, 307.14 146.15, 332.87 118.67 M292.79 162.86 C302.14 151.64, 312.94 139.69, 331.5 118.42 M297.14 161.75 C304.21 152.39, 314.86 144.68, 331.81 124.23 M299.03 163.63 C308.81 151.95, 317.97 141.29, 332.54 122.81 M302.16 163.2 C314.34 152.01, 321.91 140.72, 331.87 128.4 M303.39 162.12 C314.68 151.53, 324.98 139.72, 332.3 129.93 M307.64 161.51 C312.71 157.68, 321.61 149.4, 334.19 134.95 M308.93 161.73 C314.27 157.2, 319.74 150.76, 333.22 136.38 M312.11 161.7 C322.55 155.34, 326.44 146.53, 333.78 142.78 M313.82 162.59 C319.57 156.25, 327.01 149.31, 332.85 141.96 M319.73 163.36 C323.5 159.96, 326.74 155.66, 333.5 150.12 M319.37 163.22 C322.73 158.1, 326 155.12, 332.29 149.08 M324.56 163.84 C327.89 161.67, 327.81 157.96, 333.33 153.24 M324.6 163.25 C326.69 161.47, 328.23 159.3, 332.81 154.53" stroke="#228be6" stroke-width="0.5" fill="none"></path><path d="M0.93 -0.54 C105 0.47, 211.2 -1.06, 329.35 -1.08 M0.45 0.12 C123.56 -0.98, 246.7 -0.79, 329.88 0.05 M330.76 -1.27 C328.78 60.76, 330.73 123.5, 328.96 160.09 M330.66 -0.42 C328.83 38.48, 329.08 76.37, 331.2 161.4 M331.73 161.18 C259.08 164.25, 188.75 164.31, -1 160.38 M330.74 161.91 C217.06 161.76, 105.15 161.05, 0.33 161.76 M0.43 160.66 C0.99 125.35, 2.02 88.44, 1.91 -0.45 M0.01 162.36 C0.14 112.18, -0.57 63.1, -1 0.86" stroke="#000000" stroke-width="1" fill="none"></path></g><g transform="translate(153.599609375 676.38671875) rotate(0 122.5 41)"><text x="122.5" y="20.333333333333332" font-family="Virgil, Segoe UI Emoji" font-size="20px" fill="#000000" text-anchor="middle" style="white-space: pre;" direction="ltr">RSSHUb</text><text x="122.5" y="47.666666666666664" font-family="Virgil, Segoe UI Emoji" font-size="20px" fill="#000000" text-anchor="middle" style="white-space: pre;" direction="ltr">[Container: Node.js 应用]</text><text x="122.5" y="75" font-family="Virgil, Segoe UI Emoji" font-size="20px" fill="#000000" text-anchor="middle" style="white-space: pre;" direction="ltr">RSS 订阅 </text></g><g stroke-linecap="round" transform="translate(110.720703125 301.2421875) rotate(0 162.650390625 76.869140625)"><path d="M0 0 C0 0, 0 0, 0 0 M0 0 C0 0, 0 0, 0 0 M-0.55 5.77 C1.12 4.02, 2.95 1.04, 4.78 0.28 M-0.33 6.15 C1.26 4.63, 2.6 3.24, 5.3 0.47 M-0.61 10.82 C2.49 7.03, 5.81 4.02, 10.1 -0.62 M-0.34 12.01 C3.37 9.53, 6.31 5.01, 11 -0.72 M-2.12 19.01 C5.19 13.87, 7.61 10.47, 15.52 -1.2 M0.13 19 C4.45 13.92, 6.82 10.15, 16.27 -0.19 M-0.13 23.07 C5.24 14.58, 11.94 7.23, 20.83 1.12 M1.19 24.08 C6.99 17.38, 11.91 9.09, 20.38 -1.06 M1.78 30.71 C11.85 20.44, 20.59 5.28, 24.28 -0.24 M-0.22 30.72 C8.15 20.37, 17.3 10.48, 26.71 0.3 M-2.02 37.49 C12.26 20.73, 26 5.72, 31.62 1.14 M0.55 35.96 C9.8 24.55, 20.7 14.67, 32.85 -1.04 M2.06 44.29 C14.29 24.61, 28.91 10.63, 36.14 0.1 M0.52 42.4 C8.01 32.82, 17.6 23.34, 37.19 0.07 M-1.67 49.19 C15.47 32.86, 29.82 12.39, 43.39 1.44 M-1.03 49.19 C14.11 30.87, 29.71 13.4, 42.94 0.49 M1.86 53.74 C13.89 36.54, 28.4 20.59, 47.32 -0.47 M0.7 54.43 C12.51 41.37, 23.73 26.9, 46.66 -0.45 M-1.37 62.53 C11.82 46.72, 23.84 34.07, 55.02 -0.19 M0.67 59.98 C21.12 37.88, 40.99 12.93, 52.35 0.76 M1.56 65.49 C21.09 45.5, 38.24 20.64, 58.88 -1.58 M-0.68 67.86 C22.34 41.85, 44.95 16.66, 57.9 0.54 M2.04 73.74 C23.66 45.12, 45.1 22.09, 65.27 -0.3 M0.38 73.24 C14.96 57.33, 29.55 40.83, 63.16 -0.06 M-0.67 81.36 C18.02 56.7, 32.87 39.83, 70.73 -0.2 M-0.3 78.41 C17.49 59.12, 32.83 40.41, 68.48 -0.68 M-1.38 85.72 C28.55 55.84, 53.32 23.54, 74.69 0.2 M-0.38 84.26 C15.64 66.62, 32.13 47.67, 74.74 0.11 M1.21 93.06 C23.35 64.3, 49.37 33.69, 79.62 -0.66 M0.5 91.99 C24.86 62.75, 49.71 34.65, 79.86 -0.47 M-1.43 98.78 C30.43 62.05, 59.91 27.3, 83.72 -1.92 M-0.91 98.55 C30.64 63.09, 61.23 27.85, 84.82 0.28 M1.75 105.24 C29.52 69.74, 60.42 35.28, 89.13 -0.62 M-0.63 102.65 C23.39 77.1, 47.19 49.29, 90.27 -0.71 M0.92 109.62 C30.3 75.65, 59.19 42.85, 94.61 -2.25 M0.31 109.74 C18.45 88.3, 37.43 65.73, 96.44 -0.61 M1.34 114.18 C21.99 87.95, 46.03 64.66, 99.71 -1.08 M-0.7 116.4 C26.73 84.31, 53.07 53.13, 99.79 0.1 M-0.41 121.87 C32.28 83.29, 66.81 42.2, 105.48 1.29 M0.64 121.17 C34.2 85.07, 67.21 45.74, 106.97 -0.72 M-0.44 126.59 C36.82 89.4, 68.95 47.41, 110.64 -0.41 M-1.06 128.91 C33.46 87.74, 67.99 48.59, 111.35 -0.1 M-0.03 133.05 C37.23 94.88, 72.2 50.01, 115.63 -0.84 M0.92 133.84 C24.69 102.85, 52.85 73.84, 116.45 0.48 M-0.21 138.56 C42.33 89.08, 86.35 39.1, 122.04 -0.28 M0.24 139.49 C26.04 107.4, 54.76 76.8, 121.68 0.05 M0.31 145.34 C42.48 94.13, 84.69 47.08, 126.15 1.25 M-0.17 146.17 C38.59 101.27, 75.55 55.9, 127.22 0.17 M-0.62 153.92 C45.39 100.03, 90.41 50.34, 132.85 0.22 M-0.45 152.64 C36.19 110.87, 73.41 67.52, 132.36 0.3 M3.54 157.14 C42.85 108.22, 86.31 61.37, 137.98 -0.55 M2.8 156.63 C36.95 116.5, 70.47 76.43, 137.04 -0.2 M8.89 155.85 C49.09 110.54, 86.87 65.5, 143 -1.07 M8.14 155.85 C35.4 125.1, 63.5 93.39, 142.79 -0.05 M14.41 155 C44.38 117.59, 78.6 80.82, 148.71 1.95 M13.77 156.21 C41.48 120.25, 72.83 85.32, 148.39 0.66 M16.93 156.74 C49.78 115.92, 82.33 77.9, 154.85 -0.31 M17.24 156.07 C63.03 104.22, 108.11 51.36, 153.16 0.46 M25.08 156.05 C76.29 95.22, 131.99 33.31, 157.82 1.82 M24.41 155.3 C66.42 109.71, 107.29 60.99, 159.46 0.52 M28.63 156.99 C73.55 106.36, 117.55 55.44, 164.39 -0.23 M28.85 155.74 C69.1 110.33, 108.56 65.84, 165.32 -0.8 M33.44 157.45 C80.17 101.64, 129.79 44.36, 168.12 0.87 M34.7 155.79 C66.11 118.41, 97.77 80.73, 168.78 -0.3 M38.01 154.73 C67.03 120.65, 96.98 87.31, 173.71 -1.2 M39.67 156.17 C81.34 109.13, 121.18 61.38, 174.71 -0.75 M43.47 155.16 C92.76 101.82, 140.45 48.24, 180.53 0.57 M45.38 156.36 C83.05 109.05, 123.8 63.58, 179.6 0.27 M51.43 154.87 C88.17 108.32, 129.97 62.36, 185.65 0.54 M49.34 156.78 C85.88 113.19, 123.77 70.38, 185.51 -0.37 M56.32 156.41 C100.25 99.7, 146.65 48.15, 192.25 0.31 M55.25 155.19 C108.57 94.6, 163.13 33.15, 190.15 -0.24 M60.89 156.69 C105.12 104.82, 149.62 50.85, 194.88 0.47 M61.37 156.05 C101.78 108.75, 143.83 62.2, 195.53 -0.29 M65.02 156.54 C111.6 104.3, 152.05 57.05, 202.12 -0.81 M65.6 156.19 C120.85 95.52, 173.94 33.54, 201.61 0.96 M70.66 155.64 C117.7 98.67, 170.64 41.72, 207.54 -1.8 M71.54 155.95 C126.29 94.6, 179.09 34.29, 207.77 0.17 M77.59 155.04 C102.36 126.55, 132.93 92.25, 212.41 1.33 M77.6 155.6 C104.72 123.39, 131.61 92.07, 211.88 0.38 M81.34 155.7 C112.78 120.81, 141.32 85.15, 218.02 -0.77 M81.27 155.71 C127.16 104.56, 170.86 53.78, 217.06 0.23 M86.75 153.78 C134.01 102.24, 182.42 45.55, 223.47 -0.13 M87.8 155.4 C124.05 111.73, 161.64 70.59, 221.84 -0.21 M91.62 157.03 C122.65 119.23, 153.81 86.27, 228.62 -0.99 M93.14 156.27 C144.49 95.46, 197.47 36.18, 228.74 0.43 M96.69 155.2 C133.6 117.42, 167.84 78.71, 231.94 0.09 M97.94 155.27 C136.26 111.98, 173.09 68.9, 232.65 0.01 M103.58 154.14 C133.78 120.57, 166.5 82.67, 239.92 -0.35 M102.94 155.82 C133.41 121.19, 163.75 84.27, 237.6 0.63 M106.98 156.97 C137.76 119.59, 168.81 84.55, 243.24 -0.13 M108.73 155.27 C142.89 117.3, 175.62 79.35, 243.1 0 M113.86 155.45 C149.47 112.57, 185.02 72.9, 248.12 1.58 M112.96 156.06 C145.67 118.49, 177.64 82.61, 249.08 -0.32 M117.31 154.57 C165.28 106.5, 208.61 53.66, 255.51 -1.45 M118.28 155.69 C155 115.99, 192.05 74.2, 254.05 -0.46 M126.06 156.64 C158 117.34, 194.53 77.94, 260.66 -0.82 M123.99 155.93 C170.05 101.15, 218.88 45.07, 260.33 0.87 M128.28 157.79 C165.45 117.82, 198.65 79.13, 264.99 -1.28 M129.17 156.72 C174.77 102.85, 220.47 51.1, 265.76 0.13 M134.74 156.62 C169.21 119.66, 199.76 81.74, 268.57 0.9 M134.46 156.09 C166.08 120.25, 197.89 83.32, 270.74 0.89 M139.3 154.38 C193.59 94.6, 250.1 32.43, 274.88 0.87 M140.11 156.74 C182.39 105, 226.27 55.66, 275.23 0.52 M144.99 155.79 C182.3 115.59, 214.71 74.19, 279.68 -0.26 M144.86 156.25 C185.35 109.83, 227.39 62.14, 280.45 0.34 M149.39 155.03 C182.64 118.24, 214.06 82.9, 286.48 -1.88 M151.17 155.52 C178.08 124.14, 206.45 90.05, 285.96 -0.6 M156.45 154.25 C186.12 124.94, 210.3 93.38, 291.87 0 M156.89 156.04 C198.46 107.3, 241.19 58.37, 291.25 -0.68 M161.89 156.77 C207.71 102.57, 256.28 47.31, 297.39 -0.77 M160.52 155.88 C196.69 116.32, 230.42 75.21, 296.42 -0.16 M168.59 157.11 C219.26 97.48, 270.47 39.81, 302 1.18 M167.17 155.9 C218.59 95.8, 270.02 37.66, 302.06 0.09 M171.99 155.48 C220.23 101.09, 267.04 42.99, 306.84 -1.53 M172.39 155.69 C203.78 119.72, 233.88 84.35, 308.05 -0.52 M179 154.96 C222.56 102.37, 267.61 51.17, 311.23 -0.17 M177.07 156.23 C221.07 106.26, 264.73 56.35, 313.48 0.81 M182.74 154.7 C212.25 124.81, 237.57 91.88, 317.48 -1.32 M181.95 155.85 C232.23 98.54, 281.27 40.98, 319.01 0.38 M188.64 154.1 C221.92 116.05, 256.6 77.28, 323.27 -1.58 M188.26 156.44 C234.72 102.8, 278.65 50.6, 323.24 0.05 M192.63 156.78 C229.87 112.18, 265.11 71.96, 328.08 1.1 M192.24 155.85 C223.59 120.7, 253.69 84.94, 326.66 1.42 M200.33 157.11 C242.86 104.4, 291.41 49.59, 329.07 7.55 M198.18 155.93 C242.08 107, 283.36 57.67, 327.78 6.87 M204.51 157.75 C240.75 114.83, 277.35 72.23, 325.38 13.7 M204.44 156.54 C230.69 121.78, 258.09 90.33, 327.73 14.8 M208.85 156.86 C239.97 121.12, 272.47 85.27, 326.93 18.86 M210.26 154.64 C235.58 129.07, 259.24 100.98, 327.96 20.57 M212.56 155.1 C236.39 130.9, 261.48 101.04, 327.89 27.03 M214.87 155.2 C248 115.27, 284.16 73.59, 327.84 26.05 M218.91 157.2 C248.92 119.64, 279.1 86.55, 328.81 31.12 M219.37 154.82 C254.02 112.73, 289.82 71.24, 327.02 33 M223.53 155.56 C255.44 122.7, 286.71 87.6, 326.11 38.78 M225.31 156.53 C253.19 124.49, 280.72 91.16, 328.21 39.07 M230.34 156.57 C256.94 121.15, 285.51 87.97, 327.55 44.21 M230.04 156.23 C258.99 121.94, 289.98 87.28, 327.04 44.74 M235.08 156.4 C259.29 126.71, 286.26 95.6, 328.25 50.45 M236.5 155.66 C258.45 127.94, 282.85 101.13, 327.41 49.77 M238.76 154.83 C263.97 127.67, 290.51 99.42, 326.88 56.96 M240.09 156.35 C274.47 116.76, 306.91 78.65, 328 56 M245.71 155.54 C276.46 120.61, 308.5 81.57, 325.7 61.92 M246.99 155.13 C265.23 134.71, 283.65 112.15, 327.69 63.72 M249.71 155.73 C278.47 118.99, 310.35 85.22, 326.02 70.06 M251.71 155.81 C268.14 137.56, 286.27 116.96, 327.33 68.7 M256.76 157.59 C278.38 127.11, 303.98 103.38, 325.66 74.47 M256.14 155.91 C278.82 129.75, 300.99 104.15, 326.59 74.16 M263.2 157.94 C277.56 135.56, 294.45 119.95, 329.02 80.88 M261.06 156.4 C286.04 126.32, 312.1 98.49, 328.3 80.17 M266.42 155.76 C286.54 134.08, 302.91 115.66, 325.21 85.29 M267.17 156.39 C284.62 136.08, 301.4 116.56, 328.02 87.49 M271.08 157.78 C286.63 139.01, 303.78 119.29, 326.13 94.21 M272.64 156.86 C284.24 143.1, 296.02 127.59, 326.36 92.91 M279.73 153.98 C296.03 136.42, 313.13 114.61, 327.92 98.51 M278.12 155.39 C288.73 142.67, 300.64 130.25, 327.86 99.31 M283.05 155.23 C301.02 135.46, 318.17 116.58, 326.42 105.22 M282.28 155.84 C299.71 137.09, 315.51 119.96, 326.74 104.59 M290.54 156.79 C300.24 142.91, 309.48 131.49, 329.22 111.86 M288.85 155.13 C300.39 141.28, 312.32 128.52, 328.32 110.12 M292.67 155.92 C301.35 145.54, 308.21 134.69, 327.83 117.99 M294.13 156.9 C301.33 146.73, 309.35 137.33, 327.54 117.54 M299.59 155.4 C304.57 147.52, 313.12 141.22, 325.72 123.52 M300.05 156.27 C304.68 148.24, 310.15 141.89, 326.3 123.12 M303.33 157.14 C310.98 148.1, 313.37 144.16, 325.79 128.52 M303.67 155.54 C313.51 145.24, 320.61 136.12, 327.34 128.79 M308.44 153.68 C314.25 149.85, 316.88 146.49, 327.83 135.06 M310.23 154.9 C314.14 150.75, 317.66 145.68, 326.98 136.13 M314.28 157.74 C318.2 150.68, 322.49 146.89, 326.62 143.37 M314.71 156.16 C317.97 152.07, 322.6 147.16, 327.55 141.77 M321.06 154.83 C321.72 154.31, 323.61 151.93, 326.52 148.95 M320.7 155.5 C323.07 153.2, 324.6 150.95, 327.05 147.57" stroke="#868e96" stroke-width="0.5" fill="none"></path><path d="M-0.2 0.12 C125.26 1.37, 248.92 0.82, 326.3 1.33 M-0.05 -0.66 C92.71 0.06, 186.42 0.02, 325.73 -0.52 M324.12 1.57 C324.56 36.99, 324.07 78.93, 325.88 152.25 M325.1 -0.71 C325.59 58.98, 325.54 116.55, 325.84 153.67 M325.66 152.6 C223.9 154.48, 123.31 153.56, -0.2 153.49 M324.88 154.42 C199.77 153.48, 74.89 153.79, -0.14 153.93 M0.09 154.84 C-0.33 123.07, -0.53 91.24, 0.28 -0.93 M-0.21 152.9 C-0.79 107, -1.36 62.86, 0.57 -0.2" stroke="#000000" stroke-width="1" fill="none"></path></g><g transform="translate(183.623046875 339.6875) rotate(0 87 39.5)"><text x="87" y="18.333333333333332" font-family="Virgil, Segoe UI Emoji" font-size="20px" fill="#000000" text-anchor="middle" style="white-space: pre;" direction="ltr">Nginx</text><text x="87" y="44.666666666666664" font-family="Virgil, Segoe UI Emoji" font-size="20px" fill="#000000" text-anchor="middle" style="white-space: pre;" direction="ltr">[Container: Nginx]</text><text x="87" y="71" font-family="Virgil, Segoe UI Emoji" font-size="20px" fill="#000000" text-anchor="middle" style="white-space: pre;" direction="ltr">反向代理</text></g><g transform="translate(680.34375 679.830078125) rotate(0 101.5 41)"><text x="101.5" y="20.333333333333332" font-family="Virgil, Segoe UI Emoji" font-size="20px" fill="#000000" text-anchor="middle" style="white-space: pre;" direction="ltr">Clash</text><text x="101.5" y="47.666666666666664" font-family="Virgil, Segoe UI Emoji" font-size="20px" fill="#000000" text-anchor="middle" style="white-space: pre;" direction="ltr">[Container: Go 应用]</text><text x="101.5" y="75" font-family="Virgil, Segoe UI Emoji" font-size="20px" fill="#000000" text-anchor="middle" style="white-space: pre;" direction="ltr">网络代理</text></g><g stroke-linecap="round" transform="translate(620.173828125 644.703125) rotate(0 162.650390625 76.869140625)"><path d="M0 0 C0 0, 0 0, 0 0 M0 0 C0 0, 0 0, 0 0 M-0.58 5.84 C1.76 4.47, 2.25 3.3, 5.42 0.97 M-0.14 6.1 C1.42 4.52, 2.13 3.62, 4.88 -0.03 M0.05 11.23 C3.53 7.1, 6.7 4.46, 11.67 -0.63 M0.16 11.77 C2.31 9.54, 5.46 5.86, 10.21 -0.52 M1.29 17.16 C3.13 14.8, 5.12 11.12, 15.63 -0.68 M-0.85 18.71 C4.4 12.29, 8.82 6.25, 16.6 0.86 M-1.28 23.37 C5.96 15.16, 13.46 6.87, 20.02 1.53 M-0.17 23.61 C7.51 14.5, 16.4 7.17, 20.77 -0.2 M-1.24 31.55 C11.83 19.44, 19.47 7.53, 24.39 2 M0.66 29.92 C7.84 19.56, 16.71 11.44, 27.24 -0.31 M-1.58 37.58 C12.65 22.99, 25.48 8.72, 31.33 -0.9 M0.01 36.29 C8.71 25.56, 18.1 15.76, 32.67 0.44 M0.86 41.13 C9.8 31.59, 18.24 21.44, 37.04 0.91 M0.86 43.48 C13.77 25.63, 28.17 9.07, 36.2 0.16 M1.02 49.28 C17.14 31.69, 33.14 12.95, 42.13 -1.39 M0.62 48.48 C14.91 31.88, 30.25 14.04, 43.44 -0.12 M-0.26 54.71 C15.11 38.14, 24.85 26.58, 45.93 1.92 M0.41 53.92 C12.16 39.13, 25.42 23.85, 46.94 -0.6 M-1.91 59.18 C12.72 47.07, 23.42 34.38, 53.34 0.56 M-0.47 59.99 C14.85 43.75, 30.36 26.3, 54.13 0.03 M-0.46 67.67 C12.07 51.19, 26.31 39.14, 57.09 -0.3 M-1.22 67.85 C14.98 49.62, 30.07 33.48, 57.83 0.39 M-0.49 72.09 C20.74 49.35, 41.36 23.62, 64.56 1.32 M0.2 73.72 C15.05 54.97, 32.4 38.88, 64.19 -0.85 M1.03 80.99 C26.18 49.44, 54.94 18.04, 68.15 -0.22 M-0.19 79.94 C19.02 57.64, 38.33 34.19, 69.18 0.89 M-1.17 83.68 C21.48 61.77, 42.44 38.54, 76.03 -0.9 M-0.03 85.4 C16.41 65.26, 33.18 46.81, 74.53 -1.2 M-0.31 91.76 C21.35 66.31, 45.38 40.67, 78.46 0.54 M0.8 90.46 C28.77 57.81, 58.42 23.69, 80.22 0.52 M-1.41 99.2 C24.1 72.12, 44.25 45.96, 86.64 -0.07 M0.5 97.34 C21.99 69.82, 46.22 43.11, 84.45 -1.11 M-1.72 104.13 C25.39 74.35, 53.76 45.16, 90.99 -0.81 M0.11 103.24 C22.13 80.05, 42.4 56.21, 90.1 -0.26 M-1.07 108.48 C19.35 85.95, 36.8 63.26, 95.96 -0.29 M-0.71 110.39 C22.03 85.21, 45.91 59.35, 94.69 0.65 M0.24 116.14 C38.31 72.29, 74.52 29.46, 102.37 1.81 M-0.44 115.47 C25.17 86.08, 51.37 56.96, 100.88 0.79 M-0.27 120.46 C36.29 83.96, 71.67 42.86, 106.19 -1.83 M0.83 121.52 C24.78 92, 48.91 65.26, 106.4 -0.36 M-1.02 126.39 C42.47 76.44, 90.68 24.82, 112.88 1.29 M0.69 127.39 C37 84.04, 73.94 40.64, 110.55 0.79 M1.15 134.18 C39.09 93.2, 74.85 48.67, 115.54 1.65 M0.17 133.77 C43.51 83.43, 86.07 35.63, 115.51 -0.5 M-1.42 141.08 C29.65 109.35, 54.19 74.26, 120.48 -0.61 M0.47 140.3 C26.33 110.2, 51.56 80.53, 122.04 0.66 M0.99 145.51 C45.92 92.84, 93.2 41.32, 126.85 2.05 M1.29 146.01 C30.77 111.58, 59.49 77.28, 126.32 -0.07 M-0.21 152.49 C27.67 121, 56.09 88.23, 130.96 0.62 M0.26 152.16 C46.6 100.33, 91.51 47.46, 132.22 0.13 M2.69 154.99 C52.61 100.94, 100.86 45.08, 137.64 -0.5 M2.08 155.66 C55.77 94.09, 108.67 32.4, 136.71 0.24 M7.77 157.57 C44.83 112.63, 85.1 66.1, 143.03 -1.22 M6.92 156.95 C41.01 118.94, 72.42 81.24, 142.77 0.75 M12.13 154.51 C50.59 113.41, 89.24 69.89, 148.7 0.74 M13.74 156.57 C56.74 107.61, 97.07 58.57, 147.32 -0.6 M19.34 154.76 C58.55 108.97, 101.9 61.92, 152.29 1.33 M18.14 156.37 C62.16 107.04, 104.53 57.52, 153.39 -0.75 M23.22 156.07 C73.16 97.19, 122.5 40.53, 157.82 -0.68 M22.94 155.29 C52.58 122.77, 81.6 91.49, 158.44 -0.61 M28.89 157.67 C65.89 111.21, 100.6 70.08, 162.83 -1.41 M28.26 156.09 C61.36 114.79, 96.41 75.11, 164.63 -0.61 M32.77 155.45 C64.49 118.28, 97.03 84.28, 168.69 -0.5 M34.72 155.54 C64.53 120.91, 93.38 87.01, 168.91 0.69 M40 154.68 C84.73 104.79, 128.38 56.46, 174.84 1.2 M38.84 156.52 C73.47 118.69, 108.27 78.55, 175.16 0.36 M44.44 154.51 C85.23 108.04, 124.47 63.74, 178.46 0.08 M45.16 156.43 C76.59 117.23, 108.07 80.53, 180.61 -0.38 M49.71 157.13 C99.26 99.97, 148.32 41.59, 186.44 -0.78 M49.15 155.7 C92.86 105.56, 137.55 55.49, 186.27 -0.62 M56.24 155.85 C98.78 106.69, 140.03 57.08, 190.21 -0.29 M54.69 155.14 C88.37 116.48, 121.44 76.63, 190.45 -0.12 M60.99 154.9 C89.06 123.02, 117.59 93.93, 195.45 -0.55 M60.59 155.52 C95.19 117.12, 128.96 77.36, 195.62 -0.23 M65.86 153.95 C105.94 108.42, 148.19 63.23, 200.49 -1.33 M65.5 154.93 C97.35 121.36, 127.04 87.13, 201.95 -0.72 M70.28 157.28 C103.6 122.78, 132.09 84.46, 208.26 -1.23 M70.52 155.49 C101.46 121.35, 129.96 86.19, 207.03 -0.65 M76.04 154.71 C107.56 121.58, 137.64 83.82, 211.77 0.68 M77 155.34 C105.55 122.35, 132.86 91.23, 211.88 -0.55 M83.48 155.65 C129.84 103.86, 173.14 52.17, 216.75 0.16 M81.98 155.41 C132.01 98.46, 182.23 40.98, 217.11 0.24 M89.2 155.86 C122.88 113.45, 161.57 71.11, 223.54 0.42 M86.76 154.89 C118.63 119.16, 152.12 81.35, 221.84 -0.35 M92.88 157.23 C120.3 124.41, 147.87 90.91, 228.46 0.24 M92.2 156.26 C125.82 117.08, 158.86 79.11, 228.67 -0.93 M98.57 155.91 C151.28 94.14, 203.31 36.25, 234.1 -0.47 M98.51 155.46 C129.62 118.55, 161.2 83.64, 233.8 -0.58 M103.76 154.91 C158.45 93.14, 210.77 31.79, 239.34 -1.11 M102.31 155.76 C151.44 101.03, 200.05 45.44, 238.42 1.05 M107.75 155.88 C152.94 100.75, 202.59 46.35, 242.33 1.32 M108.81 156.16 C147.56 111.3, 186.52 66.93, 243.89 -0.49 M114.91 157.43 C154.02 108.33, 192.8 62.79, 248.77 1.6 M112.93 156.38 C143.33 119.26, 174.69 83.27, 249.44 0.13 M117.57 154.76 C157.1 113.45, 195.9 69.78, 253.03 -1.74 M117.91 156.67 C170.5 96.95, 221.21 38.79, 253.93 -0.84 M123.89 155.59 C168.51 103.98, 215.96 49.66, 260.95 0.88 M125.06 155.51 C168.27 105.82, 211.88 54.24, 259.19 0.33 M130.56 155.33 C176.72 102.94, 222.08 46.08, 264.47 -1.3 M129.77 156.93 C166.65 112.68, 204.23 69.75, 265.26 0.58 M135.98 156.09 C189.87 96.09, 242.23 35.44, 271.56 -0.11 M135.64 155.31 C180.87 104.02, 225.44 53.18, 270.19 -0.54 M141.63 156.29 C176.27 115.95, 208.99 76.73, 277.28 0.18 M140.07 155.43 C170.14 120.31, 201.68 83.78, 276 -0.86 M144.58 154.78 C196.86 96.13, 250.25 34.51, 279.51 0.78 M145.52 156.45 C183.41 112.62, 220.56 69.36, 281.32 -0.41 M149.58 154.58 C198.31 100.57, 248.69 44.03, 285.57 -1.66 M150.41 155.99 C185.43 111.96, 222.6 70.61, 285.57 0.31 M157.92 156.31 C191.86 115.3, 226.03 73.71, 292.34 -0.68 M156.83 155.43 C186.81 120.91, 215.91 87.64, 290.5 0.89 M161.82 154.95 C209.02 101.26, 256.01 48.12, 296.48 -0.69 M161.44 155.14 C200.78 108.35, 242.51 61.14, 297.28 -0.83 M165.24 154.49 C199.44 118.35, 230.68 81.86, 303 0.93 M166.73 156.17 C215.32 99.93, 261.88 46.47, 302.7 0.69 M171.2 157.6 C222.3 99.13, 270.41 43.35, 307.04 0.22 M171.95 155.5 C204.27 118.52, 234.9 83.89, 306.86 -0.91 M177.7 155.44 C222.96 104.42, 267.94 51.74, 313.07 1.1 M177.21 154.88 C217.17 109.84, 258.45 62.92, 313.03 -0.27 M182.74 156.37 C215.82 115.02, 252.1 72.07, 316.67 -1.93 M181.57 155.99 C212.19 120.04, 243.88 86, 317.49 0.17 M187.47 154.48 C223.11 114.79, 259.98 74.16, 323.8 1.42 M188.86 155.15 C218.88 120.87, 247.4 86.16, 323.65 -0.51 M194.04 154.72 C243.85 96.74, 296.33 39.87, 326.96 0.85 M193.39 156.24 C229.21 117.7, 261.7 79.39, 326.34 2.41 M197.93 155.7 C240.53 108.09, 282.32 57.73, 327.86 8.29 M198.12 154.57 C236.22 110.34, 277.07 65.75, 327.44 6.99 M204.2 157.02 C249.25 99.49, 298.88 47.71, 326.52 14.67 M204.3 155.71 C248.75 103.35, 292.79 52.57, 326.25 13.06 M207.85 155.91 C244.9 113.53, 284.11 69.21, 326.45 19.78 M209.17 154.9 C242.99 118.41, 274.04 82.32, 328.2 19.71 M215.5 155.34 C252.7 112.76, 293.98 65.23, 326.97 26.06 M214.4 156.57 C256.65 109.38, 297.18 60.42, 326.73 25.3 M220.32 157.24 C243.31 128.22, 268.02 99.83, 327.32 30.6 M220.03 155.15 C249.49 120.72, 280.24 85.6, 327.46 31.94 M224.33 153.98 C259.89 116.53, 296.04 73.07, 326.29 38.87 M224.99 154.91 C265.94 109.95, 304.02 63.87, 326.99 38.61 M228.54 154.55 C262.02 119.39, 295.25 83.11, 327.81 44.39 M230.39 155.44 C251.38 130.59, 273.05 106.08, 326.63 45.15 M234.6 156.22 C257.97 128.09, 283.34 100.8, 327.09 50.92 M235.26 155.67 C264.24 121.78, 293.16 90.08, 327.73 49.77 M240.31 154.28 C267.34 124.14, 292.78 94.46, 328.95 55.91 M241.32 156.95 C260.35 134.47, 278.05 111.6, 328.12 56.88 M247.87 154.18 C273.54 128.39, 296.96 97.45, 325.98 64.66 M245.29 155.56 C271.47 126.56, 298.53 97.28, 327.43 62.61 M252.12 156.99 C275.01 130.66, 295.92 105.76, 328.11 70 M250.35 155.48 C275.64 128.97, 299.44 100.54, 326.86 68.78 M257.38 154.83 C285.52 124.15, 310.86 94.39, 326.21 74.07 M257.12 156.17 C283.94 127, 308.86 95.66, 327.93 74.04 M261.78 156.31 C279.65 136.44, 297.2 114.91, 328.28 80.35 M261.1 155.37 C275.53 139.59, 290.39 124.22, 326.76 80.29 M266.02 153.98 C285.24 134.88, 299.95 115.12, 327.72 87.27 M267.69 154.88 C283.94 134.99, 303.5 114.84, 327.56 87.57 M273.74 157.74 C286.93 137.6, 305.95 119.67, 327.49 92.25 M271.59 155.31 C289.25 135.16, 306.85 115.45, 326.95 92.47 M276.31 154.29 C289.2 142.69, 304.96 128.5, 327.73 97.47 M277.86 155.91 C293.68 136.02, 309.95 117.9, 326.7 99.26 M281.13 156.59 C300.13 135.94, 318.29 118.57, 327.35 105.55 M283.29 155.32 C296.44 141.15, 308.42 126.13, 327.48 105.9 M288.45 155.25 C302.05 141.44, 313.1 128.04, 326.16 109.71 M289.43 155.33 C302.97 137.75, 318.14 122.55, 328.17 111.53 M295.71 156.04 C304.05 147.8, 310.38 136.09, 327.2 117.23 M294.05 155.73 C304.82 143.54, 315.39 133.25, 326.34 118.29 M298.31 155.22 C305.87 144.28, 315.39 136.76, 326.9 123.63 M300.1 156.01 C307.63 145.4, 315.72 135.85, 327.54 124.85 M305.93 157.1 C310.5 147.74, 317.38 143.11, 328.67 128.36 M305.19 156.21 C308.27 151.43, 312.61 144.96, 327.09 130.41 M311.38 157.37 C316.52 147.22, 324.95 138.26, 326.48 136.47 M310.52 154.65 C314.9 149.65, 320.54 142.01, 326.79 135.78 M314.87 156.6 C317.27 152.83, 319.53 149.01, 328.96 142.77 M314.44 156.71 C319.68 151.82, 322.72 146.41, 327.25 141.84 M320.73 155.62 C321.93 154.24, 322.62 151.8, 327.65 148.75 M320.93 155.14 C323.07 152.68, 326.05 149.46, 327.26 148.2" stroke="#15aabf" stroke-width="0.5" fill="none"></path><path d="M0.98 -1.26 C123.95 -1.56, 247.46 -0.49, 326.19 -0.86 M0.24 -0.52 C71.38 0.39, 141.45 0.1, 325.92 0.17 M324.8 0.53 C323.98 43.41, 324.07 84.59, 325.62 154.3 M325.94 0.52 C325.62 37.52, 325.79 73.55, 324.33 154.73 M325.17 153.36 C243.2 155.95, 162.92 154.71, -1.25 152.97 M325.11 153.18 C227.54 152.55, 130.35 152.33, -0.18 153.29 M-0.7 155.38 C-1.53 100.62, 1.48 47.25, -1.68 -0.84 M0.9 153.26 C-0.26 100.99, -0.79 48.82, 0.65 0.4" stroke="#000000" stroke-width="1" fill="none"></path></g><g transform="translate(188.77734375 974.810546875) rotate(0 88.5 41)"><text x="88.5" y="20.333333333333332" font-family="Virgil, Segoe UI Emoji" font-size="20px" fill="#000000" text-anchor="middle" style="white-space: pre;" direction="ltr">缓存</text><text x="88.5" y="47.666666666666664" font-family="Virgil, Segoe UI Emoji" font-size="20px" fill="#000000" text-anchor="middle" style="white-space: pre;" direction="ltr">[Container: Redis]</text><text x="88.5" y="75" font-family="Virgil, Segoe UI Emoji" font-size="20px" fill="#000000" text-anchor="middle" style="white-space: pre;" direction="ltr">缓存</text></g><g stroke-linecap="round" transform="translate(110.720703125 935.390625) rotate(0 162.650390625 76.869140625)"><path d="M0 0 C0 0, 0 0, 0 0 M0 0 C0 0, 0 0, 0 0 M0.42 5.86 C1.41 5.1, 4.01 2.36, 5.74 0.85 M-0.43 6.04 C1.32 4.6, 3.03 2.59, 4.89 0.56 M0.73 12.76 C3.08 8.4, 7.04 4.25, 11.7 0.93 M0.3 12.47 C2.27 9.09, 5.99 5.1, 11.16 0.26 M-1.04 20.34 C5.59 11.28, 11.53 4.01, 14.88 -0.38 M-0.2 18.34 C3.4 14.65, 6.8 11.81, 14.62 1.24 M-1 22.81 C3.9 19.68, 9.74 13.81, 22.27 1.5 M1.21 23.83 C5.66 16.95, 11.31 10.24, 21.19 -0.25 M0.53 30.66 C8.34 20.58, 21.57 9.54, 27.97 2.18 M-0.98 30.5 C5.31 23.28, 12.63 16.38, 25.45 -0.1 M1.38 37.24 C10.85 24.25, 22.65 11.88, 33.66 1.37 M-0.97 37.62 C9.65 25.41, 18.15 15.38, 31.88 -0.76 M-0.89 40.74 C8 32.13, 15.27 22.45, 37.1 -1.3 M-0.82 42.26 C14.05 27.9, 26.92 12.47, 37.52 -0.36 M-1.53 48.04 C11 40.13, 17.81 27.55, 40.79 -0.72 M-0.63 48.29 C11.04 35.72, 20.07 24.47, 41.96 -1.06 M-0.51 52.96 C12.27 41.8, 26.3 25.2, 48.14 1.26 M0.82 54.81 C10.29 41.92, 21.97 29.03, 47.96 -0.31 M1.58 59.91 C14.95 40.5, 32.29 23.3, 52.18 1.39 M0.63 60.89 C20.49 37.94, 40.71 13.73, 53.36 -1.12 M-0.35 66.12 C19.3 48.74, 35.62 29.21, 59.76 -1.39 M-0.87 68.02 C17.15 46.68, 34.66 27.64, 57.72 0.67 M-0.48 73.49 C16.02 56.12, 26.36 40.09, 64.2 -0.46 M-0.3 73.11 C24.3 44.93, 49.74 15.63, 64.31 0.05 M-0.6 78.41 C23.61 56.71, 41.16 29.29, 69.5 2.14 M-0.4 78.42 C15.98 60.31, 34.21 39.81, 68.6 -0.35 M-0.05 84.04 C24.05 57.1, 50.03 26.41, 75.04 1.19 M0.31 85.07 C24.26 58.5, 46.29 31.67, 74.38 -0.64 M-1.59 89.92 C27.48 57.01, 56.19 23.27, 79.73 -0.09 M-0.9 90.73 C19.3 67.43, 38.39 46.28, 80.21 1.12 M-1.3 96.25 C20.37 74.62, 38.03 50.96, 86.75 -0.52 M-0.64 97.09 C19.96 76.39, 38.07 53.78, 85.49 0.61 M0.84 101.68 C30.32 70.01, 59.31 36.34, 91.67 -1.37 M-0.54 103.83 C22.18 75.93, 47.34 49.06, 90.99 -0.02 M0.44 111.19 C24.38 80.67, 51.94 49.52, 95.21 -0.8 M0.53 109.62 C33.56 71.97, 67.26 35.09, 94.87 -0.45 M0.72 114.33 C32.73 78.31, 61.47 41.45, 99.38 1.68 M-0.15 114.52 C34.66 77.43, 69.29 37.54, 101.21 0.56 M0.7 120.86 C42.15 75.61, 80.1 31.03, 108.18 -1.21 M-0.62 122.8 C34.52 79.93, 71.38 39.48, 106.06 -1.15 M-0.76 126.97 C27.43 95.79, 56.54 62.78, 111.77 -0.94 M-0.88 129.29 C36.08 84.12, 74.72 39.89, 111.96 -0.39 M-1.5 135.16 C33.16 93.22, 65.72 55.97, 114.56 1.11 M0.94 134.44 C23.85 105.69, 46.47 78.75, 115.31 -0.16 M1.42 140.05 C42.86 93.74, 85.45 45.97, 122.59 1.47 M-0.61 140.27 C45.79 86.82, 93.98 32.73, 122.18 -0.7 M1.72 144.65 C39.78 104.25, 73.65 62.4, 125.08 0.42 M0.07 145.79 C25.33 115.34, 50.24 85.78, 127.14 0.52 M-1.66 153.81 C48.67 95.42, 97.25 40.59, 132.44 -1.58 M-0.75 152.75 C28.17 119.96, 56.48 87.44, 131.71 0.19 M2.98 156.22 C43.63 108.26, 84.79 62.19, 138.28 0.81 M2.43 156.18 C44.96 108.57, 87.75 59.77, 137.44 0.99 M6.18 155.76 C36.31 124.54, 64.36 95.1, 142.77 -0.57 M8.06 156.94 C39.92 116.99, 74.85 78.46, 143.77 0.34 M12.66 156.28 C58.35 100.84, 107.56 46.02, 149.37 -0.37 M12.22 155.34 C61.39 99.2, 111.02 43.6, 148.97 -0.09 M18.33 154.89 C57.76 111.59, 94.53 66.12, 153.76 1.31 M17.29 156.86 C58.16 108.9, 98.68 61.13, 153.35 0.21 M24.21 155.27 C67.55 107.48, 111.41 57.91, 159.42 1.06 M23.02 156.23 C68.31 104.38, 112.49 51.49, 158.3 1.06 M27.15 155.52 C75.14 105.17, 119.99 50.08, 162.84 -1.86 M29.12 155.7 C66.23 113.19, 105.98 69.78, 164.21 -0.32 M33.41 154.22 C65.36 120.04, 99.52 82.5, 169.12 0.13 M34.98 156.09 C64.32 120.89, 96.53 83.81, 169.47 0.15 M38.78 156.08 C79.75 111.13, 119.58 61.94, 173.56 0.53 M38.65 155.46 C77.46 110.3, 115.39 65.81, 175.53 -1 M45.69 156.57 C88.63 105.5, 132.26 56.69, 180.83 -1.37 M45.45 156.13 C74.02 120, 105.13 84.86, 180.57 -0.03 M50.36 154.73 C96.14 103.9, 144.65 47.3, 186.62 -1.61 M49.23 156.3 C91.68 108.24, 133.02 60.8, 186.32 -0.32 M56.52 155.62 C105.68 97.36, 153.54 41.42, 189.64 -0.14 M55.15 155.26 C98.59 107.23, 140.52 58.18, 189.98 0.54 M58.88 154.63 C98.08 114.93, 132.91 73.06, 194.62 -1.84 M60.97 155.65 C105.38 105.56, 149.47 53.2, 196.35 0.05 M67.51 154.18 C114.91 98.15, 166.08 40.27, 202.96 -0.31 M65.58 156.29 C97.54 119.48, 129.64 82.75, 200.84 0.06 M70.06 155.11 C112.66 103.4, 159.58 53.98, 208.65 -0.22 M71.61 156.19 C101.4 120, 131.91 85.06, 206.98 -0.29 M77.42 155.63 C116.45 111.28, 151.93 67.23, 210.26 -1 M76.27 156.23 C125.97 99.21, 176.11 41.95, 211.21 -0.69 M82.39 156.94 C130.83 99.82, 183.15 40.45, 217.48 -1.54 M80.96 156.09 C120.05 114.1, 156.03 71.75, 216.78 0.4 M87.56 155.04 C122.3 112.76, 158.74 71.81, 224.02 -1.61 M87.5 155.97 C120.72 115.42, 154.2 77.73, 222.13 0.79 M92.44 157.05 C134.96 104.75, 179.85 56.81, 228.38 0.61 M91.76 155.24 C123.59 121.31, 153.62 88.19, 227.71 -0.18 M96.43 155.2 C131.08 116.46, 164.15 78.46, 231.65 -0.07 M97.62 155.94 C131.39 116.93, 162.57 79.59, 233.17 0.68 M103.75 157.4 C142.74 111.93, 183.18 62.98, 239.84 1.59 M103.52 156.12 C133.38 120.69, 162.91 85.37, 238.25 0.33 M108.62 154.12 C156 99.37, 203.48 44.83, 243.57 -1.74 M109.29 155.12 C144.17 116.88, 177.71 76.54, 243.26 0.47 M114.4 156.07 C152.12 111.01, 188.94 67.04, 249.48 -1.42 M113.37 155.8 C156.75 104.59, 202.26 51.55, 248.71 -0.27 M118.13 154.71 C153.95 115.15, 190.05 76.72, 255.81 0.16 M118.99 156.32 C153.96 115.31, 188.43 76.39, 255.23 0.64 M125.86 156.17 C161.66 112.98, 195.07 72.46, 259.09 0.54 M124.04 155.74 C173.76 95.97, 224.96 38.81, 259.94 0.26 M130.58 156.43 C165.42 114.3, 199.6 71.03, 266.05 1.45 M129.49 156.88 C172.07 107.83, 214.74 57.81, 265.93 -0.12 M134.15 156.98 C174.98 108.21, 216.81 62.29, 271.82 2.02 M134.12 155.53 C173.72 110.84, 212.82 65.77, 269.72 1.08 M139.71 154.48 C169.18 121.58, 198.57 84.3, 275.38 -0.58 M139.66 155.91 C192.41 96.66, 245.01 34.18, 276.08 -0.58 M145.81 155.66 C179.75 118.62, 210.8 80.47, 279.14 -0.09 M146.08 155.6 C197.46 94.95, 249.94 36.29, 280.15 -0.01 M149.54 156.32 C206.14 94.16, 257.2 30.17, 286.56 -1.85 M149.73 155.69 C200.77 100.02, 247.43 44.5, 285.82 0.46 M154.8 156.2 C209.09 95.47, 259.49 35, 291.06 -1.17 M156.4 156.31 C194.08 111.66, 232.57 68.07, 291.39 -0.43 M161.29 155.77 C214.9 95.7, 267.92 32.1, 298.6 -0.36 M161.6 156.19 C206.65 103.05, 251.74 52.02, 297.32 -0.32 M165.61 156.92 C204.63 116.05, 240.73 71.81, 302.33 -1.36 M167.23 155.27 C218.23 94.18, 272.73 33.06, 302.55 1.03 M171.6 156.14 C204.07 116.8, 238.64 79.1, 308.65 -1.5 M172.54 156.01 C222.82 97.31, 273.72 37.63, 306.86 -0.99 M177.25 155.88 C214.62 112.85, 252.08 71.71, 311.99 -0.24 M178.33 155.36 C204.85 123.35, 232.44 92.46, 312.58 -0.3 M181.42 154.2 C226.46 105.44, 271.06 54.01, 317.24 1.46 M183.24 156.77 C210.86 122.47, 241.37 90.22, 318.08 -0.58 M188.59 156.12 C238.01 100.08, 289.86 39.84, 321.63 1.46 M187.97 154.96 C217.11 123.5, 244.52 91.77, 322.97 0.21 M194.22 156.18 C223.65 119.88, 255.5 83.66, 328.15 2.97 M193.35 155.12 C229.79 114.57, 267.53 71.3, 326.77 2.32 M200.32 157.03 C225.83 122.12, 255.77 89.98, 327 7.52 M199.23 155.97 C249.83 97.69, 300.05 41.23, 326.63 7.01 M203.52 154.56 C242.51 112.07, 278.45 68.57, 326.05 15.04 M204.17 156.17 C235.7 120.42, 266.4 83.89, 328.04 13.35 M208.66 155.18 C240.22 121.02, 269.6 88.41, 328.7 20.84 M209.96 155.58 C245.77 110.75, 283.56 69.25, 326.6 20.02 M212.37 155.34 C249.51 115.49, 287.3 71.75, 327.06 24.24 M213.96 156.37 C258.2 105.57, 303.7 54.03, 327.57 26.39 M219.92 155.05 C243.13 130.51, 263.04 106.49, 328.13 32.94 M219.19 154.65 C249.43 121.68, 277.02 88.63, 326.25 31.94 M225.36 157.54 C260.95 112.05, 301.29 68.55, 327.3 36.88 M224.84 155.17 C260.68 112.27, 297.94 71.43, 326.77 38.28 M231.57 155.48 C265.28 116, 300.59 73.16, 327.76 44.07 M229.65 155.79 C258.14 123.36, 285.28 90.74, 327.89 44.13 M233.75 154.83 C272.05 114.35, 307.96 70.59, 328.6 50.83 M235.72 156.48 C268.68 116.82, 302.65 77.48, 328.4 49.73 M240.87 156.68 C269.94 121.41, 300.6 89.95, 328.93 57.43 M241.34 155.27 C270.26 122.28, 298.94 87.79, 327.65 55.64 M245.68 157.51 C266.18 132.33, 285.15 109.11, 327.97 62.34 M245.34 155.68 C268.73 130.06, 291.42 104.81, 326.9 63.13 M250.95 154.79 C272.8 131.02, 293.04 106.24, 328.48 70.09 M250.64 156.53 C278.95 125.69, 305.04 92.79, 327.17 69.2 M256.11 154.53 C273.09 134.33, 290.83 118.46, 326.25 73.07 M257.26 156.54 C278.72 131.75, 299.39 106.14, 328 74.52 M263.46 156.85 C277.64 137.62, 297.95 116.15, 328.1 79.81 M261.89 156.18 C287.54 127.44, 312.54 98.3, 327.89 80.93 M268.86 155.51 C292.82 126.29, 316.93 99.33, 326.13 88.59 M266.88 156.27 C283.86 137.83, 299.96 118.03, 327.79 87.13 M271.89 155.55 C288.96 137.37, 305.71 116.08, 327.67 91.73 M271.8 155.78 C285.58 140.36, 297.08 127.45, 327.46 94.16 M278.57 156.74 C298.79 134.88, 318.61 110.19, 328.82 97.39 M278.43 156.49 C296.54 133.94, 314.88 114.04, 326.34 99.37 M283.55 155.24 C299.58 140.13, 313.87 122.22, 325.87 105.41 M282.35 156.77 C293.89 144.47, 304.7 130.91, 327.3 105.37 M288.76 155.13 C295.89 145.23, 306.42 135.97, 327.36 109.59 M287.94 156.25 C298.4 145.1, 307.22 133.43, 328.05 110.54 M293.63 157.95 C302.55 146.21, 311.5 137.56, 326.26 117.3 M293.9 155.55 C303.27 143.33, 313.11 133.38, 327.68 117.71 M297.76 154.27 C309.11 143.74, 316.11 135.98, 328 123.74 M300.31 155.01 C306.47 147.83, 313.34 139.59, 326.01 124.65 M303.13 157.32 C310.21 150.06, 314.74 141.81, 325.91 127.78 M304.12 156.41 C308.9 150.8, 315.39 142.71, 327.39 129.01 M308.76 154.42 C314.68 149.47, 318.86 146.9, 326.76 137.77 M310.23 155.67 C314.25 152.54, 316.69 146.99, 327.57 136.35 M316.82 156.64 C318.88 151.04, 322.25 146.67, 328.66 139.95 M315 156.55 C317.91 151.66, 321.18 148.98, 327.99 141.53 M320.21 154.98 C322.31 153.01, 326.26 149.61, 327.39 147.75 M320.94 155.51 C322.44 153.48, 323.6 151.37, 327.34 148.22" stroke="#15aabf" stroke-width="0.5" fill="none"></path><path d="M1.22 -0.61 C80.95 -1.26, 159.45 -1.99, 325.09 0.75 M0.51 0.22 C110.95 -1.07, 221.29 -0.99, 325.79 0.62 M323.82 -1.37 C326.44 58.83, 327.93 114.1, 325.77 151.98 M325.28 0.98 C326.1 42.09, 325.97 83.72, 324.3 153.18 M326.18 154.26 C198.27 156.26, 71.84 154.24, -0.18 153.28 M325.84 153.83 C256.12 152.33, 188.27 152.16, 0.57 154.24 M1.27 155.11 C-0.34 100.73, 1.02 44.68, -0.62 -1.08 M-0.88 153.01 C-1.45 116.74, -2 78.21, 0.97 0.99" stroke="#000000" stroke-width="1" fill="none"></path></g><g stroke-linecap="round" transform="translate(110.720703125 10.5625) rotate(0 163 76.869140625)"><path d="M0 0 C0 0, 0 0, 0 0 M0 0 C0 0, 0 0, 0 0 M0.45 6.71 C1.19 5.29, 2.63 3.41, 4.61 0.15 M0.09 6.02 C1.01 4.83, 3.06 2.8, 4.98 0.26 M0.64 12.46 C2.15 8.59, 5.15 6.21, 12.14 -0.82 M0.41 12.1 C2.77 8.9, 6.72 5.31, 10.56 -0.67 M-1.34 18.09 C2.83 12.75, 8.63 8.65, 17.03 -0.6 M-0.75 17.69 C2.75 14.71, 6.83 10.04, 16.22 1.04 M-1.27 23.09 C6.33 20.66, 11.18 12.6, 20.5 1.4 M0.28 23.36 C5.16 18.9, 10.72 11.29, 20.34 0.01 M0.77 29.63 C6.14 23.42, 15.67 15.11, 24.99 0.1 M-0.08 30.7 C8.85 21.13, 17.12 9.83, 27.22 0.22 M-1.14 38.79 C6.76 30.45, 14.26 19.39, 32.46 -1.05 M-0.16 37.1 C9.49 24.71, 20.33 13.24, 31.22 -0.64 M-1.2 44.52 C14.04 25.47, 26.74 11.93, 36.9 1.34 M-0.16 41.76 C11.52 28.08, 24.85 15.56, 37.25 -0.57 M1.61 49.44 C12.87 37.32, 23.3 25.1, 41.07 0.13 M-0.29 48.68 C14.82 33.17, 28.18 16.22, 42.8 0.37 M-0.47 55.14 C11.43 41.68, 20.45 28.41, 48.62 1.23 M0.53 55.07 C13.58 39.88, 26.05 25.14, 48.46 0.89 M0.27 61.77 C10.92 48.08, 23.65 32.09, 52.85 1.12 M-0.71 60.13 C11.12 47, 23.11 33.64, 53.98 0.09 M-1.04 66.3 C22.02 39.53, 42.52 16.97, 56.84 -1.51 M0.19 67.49 C22.64 42.46, 44.54 17.71, 58.78 0.24 M1.68 74.39 C17.94 55.47, 30.61 36.5, 62.16 -0.27 M0.49 72.16 C24.96 44.42, 48.01 17.12, 64.01 0.49 M-1.12 78.17 C17.65 57.85, 38.76 36.79, 69.07 -1.47 M-0.69 78.56 C14.04 63.25, 26.8 46.13, 69.02 -0.45 M-0.52 84.57 C15.63 64.92, 32.24 48.45, 73.2 1.44 M0.02 85.89 C24.5 56.87, 49.77 28.11, 73.47 -0.53 M0.97 92.87 C22.94 63.76, 49.6 34.13, 77.7 -0.59 M-0.25 91.98 C19.61 69.8, 36.9 48.25, 79.79 0.3 M-0.49 99.01 C31.44 62.8, 64.17 25.4, 86.01 1.38 M-0.22 98.63 C22.87 71.48, 46.83 43.95, 85.25 -0.15 M-0.62 105.4 C19.78 83.56, 37.66 59.59, 89.95 1.83 M0.35 103.65 C28.72 69.72, 58.87 36.86, 90.51 0.39 M0.43 108.77 C18.97 84.75, 41.78 62.02, 94.49 -1.66 M0.46 109.82 C32.8 73.9, 64.18 37.3, 95.6 0.38 M2.14 114.43 C20.99 87.96, 47.52 63.39, 101.88 -0.83 M1.28 115.36 C22.28 89.02, 43.1 64.75, 100.48 -0.84 M-0.22 123.86 C39.02 78.89, 75.68 34.6, 104.37 0.78 M0.62 122.63 C27.5 91.93, 54.43 60.69, 107.07 -1.29 M0.45 129.03 C40.27 80.22, 83.67 31.37, 112.39 -0.56 M0.38 128.6 C29.18 91.84, 61.01 57.53, 111.78 0.35 M-1.42 132.18 C26.51 104.1, 52.73 72.66, 114.58 1.53 M0.29 133.85 C39.99 88.9, 78.42 41.82, 116.88 1.19 M1.33 139.67 C44.96 91.87, 86.72 40.99, 121.24 -0.67 M0.78 140.51 C40.2 95.89, 79.8 49.62, 122.34 -0.87 M-1.3 146.27 C28.09 113.86, 56.49 80.94, 125.83 0.86 M-0.67 145.73 C44.46 93.29, 90.09 42.24, 126.58 0.82 M1.5 152.7 C35.03 111.26, 69.48 72.95, 131.17 -1.64 M-0.01 151.51 C28.58 119.95, 55.22 89.47, 132.87 -0.81 M2.79 155.16 C49.13 100.73, 98.14 47.44, 138.62 0.87 M2.39 156.55 C53.78 98.27, 104.68 38.5, 137.09 0.72 M7.99 157.1 C36.81 119.3, 69.67 84.24, 144.92 -0.04 M6.77 156.45 C40.69 120.93, 72.76 82.24, 143.98 -0.66 M11.33 155.04 C60.3 100.7, 107.65 45.59, 146.64 0.77 M12.63 155.21 C57.34 102.21, 102.9 51.59, 148.13 0.4 M19.62 156.54 C50.56 117.64, 80.66 82.83, 153.91 -0.59 M18.68 156.63 C62.39 104.62, 107.27 52.27, 153.32 -0.83 M23.44 154.37 C51.68 121.35, 80.72 90.24, 159.76 -0.64 M22.8 155.55 C65.02 109.03, 106.25 60.05, 159.03 0.92 M26.95 157.11 C69.26 106.63, 113.02 59.8, 164.46 -0.34 M28.13 156.13 C69.27 109.82, 110.04 61.96, 163.76 -0.55 M33.11 155.98 C67.45 119.28, 96.84 84.11, 169.78 0.56 M33.95 155.72 C62.4 122.37, 90.81 90.19, 169.35 0.69 M37.9 155.47 C71.03 115.52, 108.14 76.26, 174.78 -1.1 M39.98 156.06 C83.39 104.08, 130.94 49.52, 175.37 -0.48 M43.98 154.39 C90.84 100.29, 140.06 46.04, 180.83 0.84 M44.32 156.03 C85.3 109.06, 125.12 62.76, 179.87 -0.2 M51.38 155.11 C100.71 96.59, 151.25 40.03, 187.37 -0.54 M49.59 155.7 C95.84 102.33, 141.32 49.08, 186.27 0.03 M56.9 155.37 C89.73 115.26, 126.06 73.44, 189.79 1.71 M55.52 156.26 C93.89 114.35, 129.78 71.24, 189.86 0.97 M59.05 157.43 C104.67 104.61, 153.29 49.84, 196.59 -1.09 M59.74 155.13 C112.64 94.43, 165.53 34.77, 197.11 0.19 M64.55 156.38 C103.44 114.69, 139.03 71.21, 202.29 0.81 M66.38 154.81 C115.73 97.71, 167.42 39.44, 201.55 -0.3 M71.96 156.4 C113.02 106.67, 157.61 54.65, 208.2 -1.04 M70.83 156.16 C105.32 116.95, 140.53 76, 206.61 0.49 M78.15 155.48 C105.55 122.94, 135.22 89.84, 213.13 0.81 M77.31 154.88 C116.36 110.75, 155.68 66.95, 212.14 -0.55 M83.27 154.59 C117.24 114.71, 154.56 70.65, 216.31 0.14 M81.78 156.07 C123.73 105.22, 166.9 57.73, 217.75 0 M86.57 156.63 C137.4 98.64, 183.73 45.92, 222.34 0.53 M87.72 154.72 C119.41 116.89, 152.03 79.51, 221.76 0.06 M91.33 154.26 C120.01 121.31, 150.71 91.49, 229.95 0.01 M92.67 155.64 C122.36 119.92, 151.55 85.29, 228.06 -0.91 M97.19 153.71 C141.21 106.52, 183.12 57.85, 233.35 0.26 M98.62 155.63 C138.99 108.33, 180.87 60.23, 232.65 0.38 M101.46 155.57 C149.38 102.94, 196.39 47.77, 238.74 -0.79 M103.9 156.44 C133.11 118.85, 163.91 83.46, 238.7 1 M109.26 157.2 C156.01 103.81, 204.41 47.95, 244.11 -0.03 M108.22 155.72 C147.28 111.69, 185.79 67.11, 244.64 -0.8 M113.51 154.84 C164.99 94.22, 215.47 35.81, 249.19 0.3 M113.47 156.44 C152.8 110.23, 191.19 64.85, 249.08 0.87 M118.58 157.55 C174.16 93.26, 226.41 31.5, 255.99 1.12 M119.22 156.89 C153.18 117.09, 186.71 78.98, 254.32 -0.28 M123.62 156.98 C177.41 95.92, 227.91 36.78, 257.73 -0.23 M125.02 156.21 C167.42 104.73, 213.25 53.69, 259.15 0.04 M128.97 156 C169.9 109.97, 208.52 64.47, 264.91 1.3 M129.96 155.6 C179.28 100.69, 228.46 42.99, 264.77 -0.3 M136.7 155.89 C181.08 104.98, 226.31 52.31, 269.32 1.06 M134.47 156.25 C184.64 97.16, 236.62 38.97, 269.37 0.37 M139.51 156.64 C188.3 100.02, 233.63 46.61, 277.29 -0.44 M140.18 155.41 C181.06 109.45, 220.26 64.1, 275.84 -0.5 M146.85 154.1 C193.55 103.24, 237.69 46.72, 280.76 -0.71 M145.17 156.08 C181.95 114.26, 218.07 72.59, 280.96 0.51 M148.89 154.49 C201.2 99.26, 249.2 44.81, 286.97 -1.77 M151.01 155.91 C178.2 125.19, 204.97 94.52, 286.74 -0.58 M156.9 157.35 C191.04 115.55, 227.16 72.21, 289.59 0.87 M156.27 155.16 C197.02 109.7, 237.04 62.65, 291.39 0.4 M160.11 155.81 C191.1 119.09, 221.66 86.94, 298.33 1.09 M161.69 156.22 C204.19 106.96, 246.29 57.53, 297.02 0.59 M166.03 155.1 C208.2 110.96, 245.95 68.34, 303.02 0.29 M167.26 155.58 C218.44 96.53, 270.11 36.89, 302.44 0.34 M171.59 155.03 C208.54 114.6, 245.12 72.55, 306.73 0.94 M172.14 155.8 C200.05 124.12, 229.26 91.72, 307.36 0.49 M178.56 154.27 C218.98 109.78, 260.44 60.1, 311.2 -0.21 M177 155.75 C220.17 108.01, 262.44 58.72, 312.2 0.12 M182.48 154.23 C233.68 98.24, 284.31 37.7, 318.02 -0.8 M182.17 155.39 C217.92 113.89, 255.08 70.63, 318.77 -0.79 M188.05 156.15 C218.32 122.15, 245.84 89.03, 324.62 0.38 M188.22 154.93 C228.13 111.25, 267.26 66.62, 323.02 -0.08 M194.5 154.33 C223.8 117.73, 258.96 79.34, 327.75 2.01 M192.31 156.1 C230.04 115.17, 263.77 74.86, 326.78 1.85 M200.54 154.5 C240.65 106.97, 284.34 53.95, 326.52 7.66 M199.57 155.92 C247.34 100.74, 295.77 44.83, 326.97 6.84 M202.87 156.96 C239.7 112.58, 279.97 70.11, 328.39 13.95 M202.85 156.85 C248.93 101.69, 296.06 49.34, 327.78 12.92 M210.61 155.67 C235.87 123.81, 265.53 90.21, 326.28 18.94 M209.67 154.98 C241.09 119.54, 272.83 81.7, 328 19.96 M212.66 154.81 C242.71 125.91, 268.68 96.54, 326.5 27.4 M215.28 156.6 C249.83 114.04, 285.7 72.13, 326.75 25.18 M218.51 154.17 C256.07 112.9, 290.89 74.66, 328.33 30.82 M220.57 155.95 C255.4 114.02, 289.85 74.06, 327.19 32.18 M226.48 156.69 C245.59 129.66, 270.01 101.08, 325.41 37.14 M224.6 155.89 C255.95 121.27, 286.08 85.37, 327.35 38.98 M231.7 154.81 C251.19 132.56, 271.14 105.79, 327.83 43.09 M229.98 156.44 C258.33 122.44, 286.4 89.8, 328.5 43.39 M233.62 154.24 C266.84 123.57, 294.81 89.26, 328.28 51.77 M234.71 155.66 C256.57 132.52, 276.5 108.34, 326.67 50.8 M241.45 155.82 C275.6 115.17, 310.85 76.74, 328.12 56.93 M240.93 155.72 C260.02 131.54, 280.32 107.88, 327.07 55.62 M248.2 155.77 C266.66 130.84, 289.69 103.4, 326.8 60.8 M245.36 156.27 C266.16 133.04, 286.37 109.96, 326.82 61.26 M252.89 155.33 C274.21 128.35, 301.15 98.55, 325.36 69.92 M250.78 156.23 C280.37 121.92, 310.34 85.94, 326.85 69.09 M255.19 156.24 C277.39 132.37, 298.87 108.04, 326.46 73.4 M257.11 156.48 C275.15 135.44, 293.61 113.78, 327.21 74.92 M261.67 154.38 C284.66 129.18, 310.39 103.17, 326.57 82.55 M260.89 155.6 C281.81 132.6, 301.8 110.59, 327.63 79.7 M268.41 155.27 C285.84 131.76, 305.28 109.85, 327.98 85.15 M268.35 156.52 C281.35 140.62, 295.56 124.57, 326.92 86.01 M271.26 155.67 C285.19 140.73, 299.89 123.57, 326.29 93.23 M272.93 156.35 C287.89 138.27, 304.1 119.68, 326.72 93.01 M276.49 155.13 C292.54 139.78, 307.74 119.78, 327.87 101 M278.31 155.01 C289.92 142.89, 300.31 131.67, 326.35 98.42 M283 157.55 C298.61 133.29, 318.01 115.2, 327.89 105.01 M283.93 156.96 C299.85 137.5, 316.25 119.07, 327.2 103.99 M288.96 154.75 C303.47 141.41, 317.47 123.06, 328.52 109.85 M288.04 155.98 C302.14 137.7, 317.05 120.88, 328.24 111.22 M294.05 156.03 C302.44 148.42, 308.4 140.05, 328.94 116.36 M293.22 156.81 C306.04 142.78, 317.8 128.4, 326.39 116.82 M298.14 155.72 C306.6 150.13, 310.42 140.93, 326.82 123.49 M299.42 155.91 C309.44 143.78, 320.52 132.67, 327.33 122.66 M303.44 154.77 C312.88 143.87, 322.11 135.27, 325.8 128.13 M303.48 155.19 C313.19 147.29, 319.67 136.67, 327.34 128.81 M309.23 156.28 C316.09 150.96, 322.01 145.14, 327.51 135.37 M310.16 154.69 C315.18 149.79, 320.55 142.99, 328.66 135.9 M314.07 155.13 C318.17 150.23, 322.45 145.33, 327.72 142.07 M315.65 156.32 C319.21 152.6, 321.77 148.66, 327.99 141.94 M321.45 156.41 C322.8 153.54, 324.61 149.52, 327.85 147.64 M320.71 155.07 C322.3 153.99, 323.23 152.17, 327.59 148.37" stroke="#ced4da" stroke-width="0.5" fill="none"></path><path d="M1.08 0.2 C67.98 -0.9, 132.62 -2.86, 326.47 -1.25 M0.59 -0.29 C74.92 -2.64, 149.6 -2.41, 326.03 0.15 M324.02 -1.7 C324.79 37.23, 323.19 76.07, 327.44 152.91 M326.83 0.5 C324.62 40.4, 325.29 79.47, 326.88 153.16 M325.45 154.31 C209.25 153.48, 93.87 153.1, 1.15 153.56 M325.61 153.41 C202.96 151.81, 79.71 152.7, -0.57 153.81 M0.6 153.21 C-1.16 98.53, -1.79 42.51, -0.5 -1.8 M0.54 154.02 C1.83 109.16, 0.16 62.94, -0.38 0.63" stroke="#000000" stroke-width="1" fill="none"></path></g><g stroke-linecap="round" transform="translate(620.052734375 10) rotate(0 163 76.869140625)"><path d="M0 0 C0 0, 0 0, 0 0 M0 0 C0 0, 0 0, 0 0 M0.05 6.51 C1.8 4.68, 3.1 2.22, 4.77 0.17 M-0.64 6.19 C1.14 5.24, 2.1 3.32, 4.88 0.25 M0.55 11.08 C2.11 8.75, 5.14 8.62, 9.84 -0.3 M0.19 11.64 C3.05 9.56, 5.51 5.9, 9.99 0 M-0.47 16.62 C4.44 12.24, 10.62 8.96, 14.69 -1.28 M-0.88 17.72 C3.66 14.37, 6.51 11.02, 16.33 -0.59 M-0.72 25.6 C6.69 20.7, 8.49 12.39, 22.73 -1.12 M-0.45 23.58 C5.68 18.63, 8.67 12.5, 21.33 -0.46 M-0.85 29.55 C6.71 25.34, 12.19 15.5, 26.05 0.99 M0.23 30.26 C6.26 23.44, 10.57 18.8, 26.17 -0.4 M1.65 36.6 C12.66 24.41, 20.93 12.79, 30.94 0.45 M-0.03 36.33 C11.48 23.08, 23.88 9.15, 31.36 0.54 M2.13 42.92 C8.55 30.9, 20.47 19.63, 37.96 0.69 M-0.62 41.83 C8.11 33.27, 18.04 22.66, 36.05 -0.17 M0.4 50.46 C9.42 39.74, 18.36 27.43, 42.79 0.54 M-0.36 49.37 C11 36.44, 20.96 25.03, 43.03 -0.78 M0.85 55.06 C18.6 32.03, 36.46 13.68, 48.51 -0.3 M0.78 54.56 C11.46 41.32, 22.61 30.1, 48.17 -0.42 M0.82 59.93 C22.7 35.77, 42.24 11.98, 54.44 -1.83 M-0.82 60.89 C18.51 39.69, 37.57 18.13, 53.41 0.61 M-1.31 67.86 C17.62 43.09, 40.82 19.45, 56.44 1.71 M-0.12 68.18 C16.76 48.72, 33.91 29.49, 58.19 -0.32 M1.53 74.84 C19.47 49.8, 37.33 28.21, 63.72 1.23 M-0.69 73.66 C13.52 55.8, 28.24 38.96, 64.47 -0.42 M-1.34 77.83 C19.64 57.97, 39.87 35.79, 67.15 -1.73 M-0.96 79.98 C26.17 48.94, 51.46 20.05, 68.17 -0.71 M-0.19 84.86 C23.57 56.95, 50.51 26.25, 76.09 0.43 M1.13 84.76 C24.59 57.82, 48.34 28.89, 74.12 -0.19 M1.45 90.55 C27.69 61.05, 53.36 26.26, 78.69 -1.23 M0.56 92.35 C21.72 65.94, 43.55 41.17, 79.58 0.89 M0.92 98.25 C35.09 60.64, 67.96 22.37, 86.7 -0.68 M0.54 97.38 C29.09 65.05, 57.19 33.22, 85.17 -1.17 M2.07 103.72 C24.96 76.62, 45.7 50.97, 91.78 0.45 M0.32 102.75 C20.03 80.12, 40.92 55.81, 90.34 -0.72 M-1.22 108.86 C35.87 67.92, 74.25 23.53, 94.32 0.33 M-0.17 110.74 C26.87 79.46, 53.18 48.6, 96.36 -1.02 M-0.81 113.86 C35.21 75.04, 73.1 33.04, 99.78 -1.62 M0.12 115.45 C25.67 82.49, 53.38 52.2, 99.77 0.6 M1.96 122.66 C28.03 90.09, 54.65 56.91, 107.42 -1.31 M0.73 121.67 C24.16 94.51, 46.89 68.59, 105.35 0.45 M0.47 127.11 C39.13 83.27, 77.68 39.96, 110.71 -0.53 M0.04 127.33 C31.97 89.2, 66.43 50.45, 111.62 -0.68 M-1.63 132.69 C28.41 101.61, 55.09 70.29, 117.43 1.25 M0.04 134.58 C41.97 85.89, 81.71 40.31, 117.09 0.98 M-0.8 142.18 C45.62 89.09, 88.8 38.91, 121.27 0.51 M0.05 139.82 C29.27 106.42, 56.7 75.55, 121.07 -0.77 M0.55 145.84 C43.05 98.14, 85.16 48.64, 127.43 1.45 M0.01 145.2 C37.35 103.25, 76.14 59.26, 127.38 -0.09 M0.33 152.82 C32.55 112.48, 67.98 70.5, 130.96 -1.71 M-0.86 152.44 C29.02 117.34, 59.98 84.15, 131.79 0.4 M1.78 154.71 C37.41 115.02, 74.29 74.39, 138.1 1.65 M3.16 155.38 C33.18 121.09, 61.7 86.39, 137.95 -0.28 M8.34 154.95 C58.91 96.1, 112.14 38.36, 143.23 -1.19 M7.69 156.46 C44.02 117.36, 77.01 78.47, 142.61 0.37 M12.32 155.91 C57.02 105.75, 101.02 53.1, 148.66 0.89 M12.49 154.9 C52.68 108.29, 95.36 61.34, 148.29 -0.26 M18.44 157.12 C68.43 94.51, 122.42 37.12, 153.34 0.48 M18.53 155.96 C67.51 98.53, 116.05 42.59, 153.1 -0.95 M22.31 156.09 C64.89 107.25, 109.45 56.68, 157.92 0.37 M23.49 155.19 C61.89 113.38, 97.77 71.77, 159.48 0.31 M29.67 155.63 C75.19 103.54, 124.42 46.87, 164.26 -0.13 M28.69 156.71 C79.42 99.9, 128.48 41.38, 164.04 -0.81 M34.59 157.27 C64.22 121, 95.43 85.14, 169.79 -1.43 M34.33 155.41 C71.91 111.75, 110.69 67.38, 169.91 -0.23 M38.7 154.41 C85.81 103.13, 133.79 46.27, 174.16 0.51 M39.29 155.24 C93.19 95, 144.45 34.01, 174.78 0.29 M43.66 154.2 C89.55 104.41, 135.35 53.43, 180.73 0.1 M45.3 154.99 C74.87 120.42, 105.17 85.93, 179.69 0.77 M49.01 156.4 C83.85 114.53, 120.78 73.73, 185.38 0.49 M49.59 155.9 C92.15 106.27, 134.93 58.44, 185.96 -0.53 M55.3 153.96 C97.31 106.68, 137.44 60.14, 192.26 -0.4 M56.19 156.33 C85.87 121.7, 114.34 86.73, 191.52 0.47 M61.99 154.58 C105.17 108.54, 146.43 57.51, 195.49 1.29 M59.7 155.81 C103.3 106.62, 148.08 56.74, 196.78 -0.53 M66.98 156.36 C107.46 110.32, 146.14 65.08, 202.02 1.39 M65.4 155.02 C109.13 106.66, 151.74 56.71, 200.92 0.3 M71.63 155.15 C124.72 95, 175.61 35.91, 206.21 -1.08 M71.39 156.34 C122.52 99.31, 171.89 40.13, 207.74 -1.1 M76.74 155.76 C114.36 113.04, 151.33 69.32, 212.69 -0.15 M76.14 154.92 C105.19 121.99, 134.54 89.77, 211.33 -0.2 M80.48 154.39 C121.02 110.1, 157.35 65.78, 218.06 -0.08 M81.96 155.19 C120.57 109.1, 162.66 62.77, 217.92 0.18 M88.56 157.02 C125.35 110.5, 167.43 65.6, 223.08 -0.99 M86.65 154.86 C129.03 105.26, 172.02 56.29, 222.6 -0.79 M90.81 154.66 C125.43 117.33, 163.33 77.23, 228.59 -1.75 M92.19 156.11 C135.83 103.2, 180.73 52.08, 227.67 -0.16 M96.3 155.99 C150.01 96.72, 202.07 39.98, 233.47 0.1 M98.22 154.87 C137.13 110.11, 175.29 65.1, 233.59 0.42 M102.79 155.52 C147.47 106.9, 189.55 57.88, 237.05 -0.86 M103.65 155.59 C152.37 95.87, 203.46 39.1, 238.83 0.76 M110.45 155.5 C146.18 116.27, 179.28 74.25, 243.85 -0.25 M108.97 155.23 C151.57 107.39, 193.54 60.78, 243.08 0.69 M112.73 155.48 C152.48 107.21, 194.54 61.87, 248.8 0.11 M114.33 156.19 C155.63 106.7, 197.84 57.93, 249.37 1.2 M120.06 157.19 C155.31 112.38, 193.19 71.72, 255.66 -1.1 M119.4 156.4 C144.74 124.76, 171.85 92.24, 254.26 0.73 M125.53 157.4 C178.37 94.59, 232.96 32.45, 258.93 0.79 M124.76 154.97 C169.31 103.83, 214.18 51.19, 259.21 0.17 M129.18 156.78 C159.7 120.05, 190.86 83.06, 266.5 1.03 M128.77 156.88 C173.68 106.46, 215.67 56.37, 264.9 0.17 M135.11 155.94 C164.42 122.3, 191.83 87.85, 270.89 1.68 M135.46 155.09 C186.36 97.9, 238.06 38.82, 270.2 0.71 M140.48 157.4 C185.58 101.41, 233.89 50.09, 275.43 -0.31 M139.25 156.82 C170.37 119.64, 202.23 82.72, 275.37 0.27 M143.97 157.25 C191.42 102.5, 233.27 52.52, 279.79 -0.4 M145.95 155.98 C183.8 112.48, 221.9 67.9, 281.01 0.76 M148.99 157.78 C192.41 109.5, 236.42 61.05, 284.77 -1.92 M150.42 155.91 C188.66 111.71, 226.86 69.98, 285.96 -0.51 M157.89 155.71 C204.73 100.88, 250.02 43.55, 292.03 0.13 M155.71 156.04 C194.31 112.19, 231.37 68.42, 291.56 -0.51 M160.98 154.71 C188.68 121.44, 221.12 89.21, 298.29 0.14 M161.39 156.8 C214.76 94.36, 267.82 34.47, 297.78 -0.32 M166.3 157.17 C199.03 119.82, 233.1 83.78, 302.12 1.59 M166.78 155.26 C202.87 113.53, 238.39 72.85, 302.16 -0.12 M170.86 155.49 C208.22 114.49, 244.05 73.17, 308.81 -1.88 M171.64 155.33 C206.83 116.31, 241.29 76.19, 308.35 -0.13 M176.14 155.77 C230.67 96.45, 279.84 38.01, 312.28 0.37 M177.62 156.2 C223.09 105.68, 266.93 53.95, 312.61 0.79 M180.73 154.88 C212.58 121, 239.84 88.94, 317.73 -0.76 M181.89 155.6 C235.81 95.36, 287.94 35.43, 317.74 -1.06 M188.69 157.06 C227.37 110.19, 266.99 65.4, 323.53 -0.15 M187.47 155.9 C220.09 119.57, 251.8 82.19, 323.07 -0.43 M191.5 154.57 C238.53 103.06, 283.82 49.06, 328.38 0.53 M193.26 156.7 C225.51 118.76, 258.34 81.48, 328.22 1.56 M197.7 154.83 C250.02 96.67, 296.85 39.92, 327.38 9.22 M199.12 155.7 C244.14 103.85, 288.23 53.72, 326.55 7.65 M204.79 154.17 C242.58 112.57, 282.36 68.09, 328.42 14.61 M204.68 155.27 C238.2 116.05, 274.68 73.64, 327.38 12.64 M209.54 154.47 C252.81 106.07, 294.38 55.68, 326.74 19.05 M208.84 154.9 C242.87 116.78, 274.42 80.69, 327.76 18.96 M213.31 157.66 C245.48 122.65, 277.31 84.74, 328.55 26.49 M215.09 155.6 C254.45 107.85, 294.55 62.14, 326.32 26.34 M218.7 156.95 C259.99 109.18, 304.26 61.54, 326.71 32.13 M220.48 155.7 C246.58 122.31, 274.8 89.45, 328.08 30.93 M225.85 154.31 C263.96 110.43, 300.56 64.18, 326.37 38.09 M225.05 155.72 C254.28 122.89, 282.09 91.13, 328.22 37.27 M228.59 156.64 C266.7 113.24, 300.29 73.43, 327.08 43.61 M230.22 156.84 C268.39 111.15, 307.94 67.13, 327.37 43.89 M234.06 157.44 C260.75 129.82, 283.73 102.84, 329.1 48.5 M235.48 155.92 C257.05 131.64, 277.66 106.06, 328.13 51.05 M240.27 156.52 C259.98 132.98, 281.91 108.03, 327.6 55.28 M240.16 155.62 C271.72 118.15, 303.81 82.1, 326.29 56.27 M246.26 154.17 C275.62 121.33, 302.35 88.95, 326.22 60.91 M246.75 155.81 C265.61 134.51, 284.66 109.96, 326.68 62.38 M250.44 154.63 C275.53 128.89, 297.87 98.61, 328.68 70.48 M251.34 155.45 C277.51 125.89, 302.05 96.57, 327.86 68.56 M257.39 155.49 C284.2 126.15, 310.55 94.86, 326.91 73.35 M257.63 155.31 C275.25 135.11, 292.18 114.6, 328.43 74.82 M260.16 155.15 C282.19 134.27, 303.42 109.41, 329.41 80.66 M261.37 155.8 C278.08 137.1, 295.85 118.05, 326.56 80.83 M267.08 154.24 C279.85 137.84, 294.29 123.77, 325.34 85.45 M268.34 155.69 C281.22 140.67, 293.88 124.09, 326.21 86.46 M272.11 155.07 C288.71 138.24, 303.08 118.56, 328.18 92.38 M272.8 155.97 C292.43 133.56, 311.64 109.86, 327.95 92.75 M277.61 155.07 C297.4 135.21, 312.52 116.3, 329.29 97.42 M277.48 156.54 C291.75 139.98, 306.91 122.46, 326.71 100 M284.66 154.23 C297.75 136.34, 317.06 116.96, 328.05 106.02 M284.07 156.09 C294.57 143, 306.06 129.68, 327.03 105.28 M287.89 156.51 C303.27 141.93, 313.66 127.42, 326.23 112.58 M289.12 154.78 C301.82 138.98, 316.01 123.75, 327.6 110.21 M293.8 157.32 C302.54 146.69, 310.56 138.86, 326.08 118.58 M294.58 156.11 C301.98 147.21, 309.06 137.46, 326.54 116.49 M299.53 156.91 C307.33 147.31, 311.55 139.15, 327.96 124.33 M299.72 155.65 C309.4 144.92, 320.1 132.05, 327.14 123.93 M303.2 155.87 C310.97 146.57, 321.04 134.77, 325.94 130.62 M303.63 156.83 C314 145.1, 321.69 135.63, 326.62 129.51 M310.75 156.49 C318.41 149.28, 325.54 139.63, 327.93 134.91 M309.16 155.72 C316.51 148.66, 321.92 141.84, 328.47 135.85 M314.23 154.34 C317.29 151.01, 320.35 150.11, 327.98 140.85 M315.42 156.8 C318.96 151.99, 322.28 148.33, 327.84 142.03 M321.55 155.38 C323.51 152.33, 324.32 151.07, 326.88 147.07 M320.2 155.7 C322.12 153.63, 323.3 152.67, 327.61 148.09" stroke="#ced4da" stroke-width="0.5" fill="none"></path><path d="M0.2 1.24 C90.24 -2.61, 177.65 -1.3, 324.75 -0.97 M-0.29 0.01 C82.84 -2.13, 166.5 -1.9, 326.15 -0.35 M324.3 -0.25 C325.9 34.67, 326.39 74.49, 325.17 152.95 M326.5 -0.15 C326.06 34.36, 325.05 68.56, 325.43 154.29 M326.57 152.68 C220.68 152.11, 114.37 154, -0.18 154.82 M325.67 154.11 C244.89 153.01, 165 151.9, 0.07 154.16 M-0.52 152.47 C0.81 106.8, 0.42 63.16, -1.8 -0.1 M0.28 154.62 C-0.58 116.3, -1.42 80.06, 0.63 -0.62" stroke="#000000" stroke-width="1" fill="none"></path></g><g transform="translate(115.720703125 74.931640625) rotate(0 158 12.5)"><text x="158" y="18" font-family="Virgil, Segoe UI Emoji" font-size="20px" fill="#000000" text-anchor="middle" style="white-space: pre;" direction="ltr">RSS 客户端</text></g><g transform="translate(625.052734375 77.869140625) rotate(0 158 12.5)"><text x="158" y="18" font-family="Virgil, Segoe UI Emoji" font-size="20px" fill="#000000" text-anchor="middle" style="white-space: pre;" direction="ltr">源站点</text></g><g stroke-linecap="round"><g transform="translate(254.97999870041554 177.537109375) rotate(0 -1.1032653803772519 56.49511551819751)"><path d="M-0.21 -0.83 C-0.44 18.18, -1.69 94.68, -2 113.82" stroke="#000000" stroke-width="1.5" fill="none" stroke-dasharray="8 9"></path></g><g transform="translate(254.97999870041554 177.537109375) rotate(0 -1.1032653803772519 56.49511551819751)"><path d="M-13.19 84.18 C-8.87 91.1, -6.12 99.02, -0.6 114.42" stroke="#000000" stroke-width="1.5" fill="none"></path></g><g transform="translate(254.97999870041554 177.537109375) rotate(0 -1.1032653803772519 56.49511551819751)"><path d="M7.33 84.51 C6.57 91.32, 4.23 99.16, -0.6 114.42" stroke="#000000" stroke-width="1.5" fill="none"></path></g></g><g transform="translate(222.3359375 211.705078125) rotate(0 40.5 14.5)"><text x="40.5" y="21" font-family="Virgil, Segoe UI Emoji" font-size="20px" fill="#000000" text-anchor="middle" style="white-space: pre;" direction="ltr">刷新订阅</text></g><g stroke-linecap="round"><g transform="translate(260.328602405345 472.568359375) rotate(0 2.0076970596956016 75.03854070343073)"><path d="M0.98 0.5 C1.31 25.56, 2.47 124.74, 3.04 149.58" stroke="#000000" stroke-width="1.5" fill="none" stroke-dasharray="8 9"></path></g><g transform="translate(260.328602405345 472.568359375) rotate(0 2.0076970596956016 75.03854070343073)"><path d="M-6.86 121.29 C-5.04 134.33, -0.92 141.94, 4.15 147.92" stroke="#000000" stroke-width="1.5" fill="none"></path></g><g transform="translate(260.328602405345 472.568359375) rotate(0 2.0076970596956016 75.03854070343073)"><path d="M13.66 120.95 C7.5 134.29, 3.64 142.03, 4.15 147.92" stroke="#000000" stroke-width="1.5" fill="none"></path></g></g><g transform="translate(223.44921875 499.630859375) rotate(0 40.5 14.5)"><text x="40.5" y="21" font-family="Virgil, Segoe UI Emoji" font-size="20px" fill="#000000" text-anchor="middle" style="white-space: pre;" direction="ltr">代理转发</text></g><g stroke-linecap="round" transform="translate(10 565.623046875) rotate(0 506.681640625 353.552734375)"><path d="M-0.18 0.63 C240.12 4.14, 480.66 4.48, 1013.16 -0.48 M1013.87 -0.8 C1014.56 266.24, 1015.24 532.63, 1013.66 707.25 M1014.07 707.28 C641.96 703.45, 269.52 702.96, 0.08 706.88 M-0.06 706.51 C-1.15 426.8, -0.96 145.26, 0.19 0.4" stroke="#000000" stroke-width="1.5" fill="none" stroke-dasharray="8 9"></path></g><g stroke-linecap="round" transform="translate(11.01953125 1216.869140625) rotate(0 83.5 26.96875)"><path d="M1.96 1.54 C51.94 2.6, 102.34 0.75, 165.61 -1.65 M-0.87 -0.88 C34.03 -0.35, 69.34 -0.09, 167.11 0.8 M166.97 0.49 C166.78 19.01, 166.29 38.05, 167.26 54.99 M166.36 -0.06 C166.43 15.65, 166.97 30.89, 166.01 54.61 M165.71 53.62 C108.91 51.23, 53.66 53.41, 1.22 54.67 M167.64 54.15 C131.85 54.09, 95.24 54.45, 0.12 54.21 M-0.26 52.09 C1.5 42.76, 1.72 29.01, 0.7 0.12 M0.04 53.53 C-0.73 32.56, -1.17 11.91, -0.16 -0.47" stroke="#000000" stroke-width="1" fill="none"></path></g><g transform="translate(16.01953125 1234.837890625) rotate(0 78.5 12.5)"><text x="78.5" y="18" font-family="Virgil, Segoe UI Emoji" font-size="20px" fill="#000000" text-anchor="middle" style="white-space: pre;" direction="ltr">server</text></g><g stroke-linecap="round"><g transform="translate(455.328125 716.3952813246792) rotate(0 76.65786531604829 -0.9923418744306218)"><path d="M0.68 -0.45 C26.11 -0.68, 127.32 -1.06, 152.64 -1.54" stroke="#000000" stroke-width="1.5" fill="none" stroke-dasharray="8 9"></path></g><g transform="translate(455.328125 716.3952813246792) rotate(0 76.65786531604829 -0.9923418744306218)"><path d="M123.81 10.51 C134.28 7.04, 139.88 2.26, 151.04 -1.59" stroke="#000000" stroke-width="1.5" fill="none"></path></g><g transform="translate(455.328125 716.3952813246792) rotate(0 76.65786531604829 -0.9923418744306218)"><path d="M123.6 -10.01 C134.11 -7.25, 139.78 -5.79, 151.04 -1.59" stroke="#000000" stroke-width="1.5" fill="none"></path></g></g><g transform="translate(483.8046875 637.451171875) rotate(0 40.5 14.5)"><text x="40.5" y="21" font-family="Virgil, Segoe UI Emoji" font-size="20px" fill="#000000" text-anchor="middle" style="white-space: pre;" direction="ltr">隧道代理</text></g><g stroke-linecap="round"><g transform="translate(453.52734375 780.2830472857186) rotate(0 76.14010794796047 105.17949179254651)"><path d="M-0.47 0.37 C8.75 3.56, 44.03 -11.99, 55.32 18.9 C66.61 49.78, 51.04 153.67, 67.28 185.71 C83.52 217.75, 138.45 207.12, 152.75 211.11" stroke="#000000" stroke-width="1.5" fill="none" stroke-dasharray="8 9"></path></g><g transform="translate(453.52734375 780.2830472857186) rotate(0 76.14010794796047 105.17949179254651)"><path d="M124.66 220.85 C133.17 218.53, 139.28 214.49, 153.43 211.44" stroke="#000000" stroke-width="1.5" fill="none"></path></g><g transform="translate(453.52734375 780.2830472857186) rotate(0 76.14010794796047 105.17949179254651)"><path d="M125.79 200.36 C133.93 204.15, 139.7 206.23, 153.43 211.44" stroke="#000000" stroke-width="1.5" fill="none"></path></g></g><g transform="translate(461.05859375 826.544921875) rotate(0 60.5 14.5)"><text x="60.5" y="21" font-family="Virgil, Segoe UI Emoji" font-size="20px" fill="#000000" text-anchor="middle" style="white-space: pre;" direction="ltr">模拟真实请求</text></g><g stroke-linecap="round"><g transform="translate(266.8194611523347 818.255859375) rotate(0 0.38832093124744915 52.97769203148778)"><path d="M-0.95 0.76 C-0.85 18.23, 1.27 87.62, 1.72 105.19" stroke="#000000" stroke-width="1.5" fill="none" stroke-dasharray="8 9"></path></g><g transform="translate(266.8194611523347 818.255859375) rotate(0 0.38832093124744915 52.97769203148778)"><path d="M-8.05 79.07 C-6.54 90.26, -0.55 99.49, 0.64 103.75" stroke="#000000" stroke-width="1.5" fill="none"></path></g><g transform="translate(266.8194611523347 818.255859375) rotate(0 0.38832093124744915 52.97769203148778)"><path d="M12.46 78.49 C5.87 89.75, 3.76 99.21, 0.64 103.75" stroke="#000000" stroke-width="1.5" fill="none"></path></g></g><g transform="translate(227.58984375 801.099609375) rotate(0 40.5 14.5)"><text x="40.5" y="21" font-family="Virgil, Segoe UI Emoji" font-size="20px" fill="#000000" text-anchor="middle" style="white-space: pre;" direction="ltr">请求缓存</text></g><g stroke-linecap="round"><g transform="translate(764.792163103697 628.513671875) rotate(0 -4.023454549325834 -221.07342131696646)"><path d="M-0.35 1.06 C-1.64 -72.9, -6.76 -369.15, -7.69 -443.21" stroke="#000000" stroke-width="1.5" fill="none" stroke-dasharray="8 9"></path></g><g transform="translate(764.792163103697 628.513671875) rotate(0 -4.023454549325834 -221.07342131696646)"><path d="M4.76 -416.92 C1.43 -422.58, -1.95 -431.37, -6.47 -444.97" stroke="#000000" stroke-width="1.5" fill="none"></path></g><g transform="translate(764.792163103697 628.513671875) rotate(0 -4.023454549325834 -221.07342131696646)"><path d="M-15.76 -416.6 C-12.84 -422.3, -9.97 -431.19, -6.47 -444.97" stroke="#000000" stroke-width="1.5" fill="none"></path></g></g><g transform="translate(715.9140625 359.244140625) rotate(0 50.5 14.5)"><text x="50.5" y="21" font-family="Virgil, Segoe UI Emoji" font-size="20px" fill="#000000" text-anchor="middle" style="white-space: pre;" direction="ltr">获取源数据</text></g><g stroke-linecap="round"><g transform="translate(388.01197785960176 620.927734375) rotate(0 149.19796075258216 -217.81154324375098)"><path d="M-0.61 0.63 C2.88 -19.71, -25.44 -95.54, 20.42 -121.66 C66.28 -147.79, 227.54 -103.66, 274.55 -156.09 C321.56 -208.53, 297.77 -389.59, 302.48 -436.25" stroke="#000000" stroke-width="1.5" fill="none" stroke-dasharray="8 9"></path></g><g transform="translate(388.01197785960176 620.927734375) rotate(0 149.19796075258216 -217.81154324375098)"><path d="M314.1 -406.73 C308.37 -415.32, 305.54 -421.74, 302.65 -434.59" stroke="#000000" stroke-width="1.5" fill="none"></path></g><g transform="translate(388.01197785960176 620.927734375) rotate(0 149.19796075258216 -217.81154324375098)"><path d="M293.58 -406.51 C293.18 -415.05, 295.68 -421.53, 302.65 -434.59" stroke="#000000" stroke-width="1.5" fill="none"></path></g></g><g transform="translate(479.578125 466.337890625) rotate(0 50.5 14.5)"><text x="50.5" y="21" font-family="Virgil, Segoe UI Emoji" font-size="20px" fill="#000000" text-anchor="middle" style="white-space: pre;" direction="ltr">获取源数据</text></g><g stroke-linecap="round" transform="translate(45.0078125 595.787109375) rotate(0 475.123046875 285.32421875)"><path d="M0.49 0.53 C296.25 -0.55, 592.21 -1.27, 949.84 -0.36 M949.87 0.67 C949.22 196.06, 948.59 392.33, 949.6 570.41 M950.42 570.29 C640.6 567.77, 331.51 566.6, -0.7 570.35 M0.7 570.89 C-2.3 361.7, -1.08 151.85, -0.43 0.77" stroke="#000000" stroke-width="1.5" fill="none" stroke-dasharray="8 9"></path></g><g stroke-linecap="round" transform="translate(49.68359375 1112.830078125) rotate(0 83.5 26.96875)"><path d="M1.29 -1.27 C52.32 0.57, 106.86 -1.52, 168.71 1.12 M0.13 0.05 C44.45 -2.21, 89.25 -1.79, 167.5 -0.76 M165.92 -1.3 C164.92 20.94, 165.38 42.05, 166.06 53.65 M166.21 0.85 C165.85 11.72, 167.62 24.68, 166.78 53.02 M167.28 53.39 C130.28 53.12, 95.88 54.82, 1.88 53.79 M167.93 53.58 C110.5 53.37, 56.26 53.2, -0.95 53.02 M0.34 52.01 C0.74 31.03, -0.83 11.7, -1.97 0.93 M-0.57 54.02 C-0.71 38.14, 0.49 23.26, 0.62 0.88" stroke="#000000" stroke-width="1" fill="none"></path></g><g transform="translate(54.68359375 1130.798828125) rotate(0 78.5 12.5)"><text x="78.5" y="18" font-family="Virgil, Segoe UI Emoji" font-size="20px" fill="#000000" text-anchor="middle" style="white-space: pre;" direction="ltr">rss_network</text></g><g stroke-linecap="round" transform="translate(616.06640625 934.474609375) rotate(0 162 77.357421875)"><path d="M0 0 C0 0, 0 0, 0 0 M0 0 C0 0, 0 0, 0 0 M-0.38 5.64 C0.97 4.39, 3.4 2.51, 4.67 0.82 M-0.51 6.46 C0.52 4.95, 2.06 4.04, 5.39 0.52 M-0.43 11.83 C3.98 8.54, 4.65 6.33, 10.74 -0.53 M0.52 11.6 C4.84 7.26, 8.69 2.13, 10.9 -0.06 M-0.75 18.9 C4.98 11.81, 8.54 8.05, 17.51 0.68 M0.54 17.57 C5.72 12.39, 12.02 4.37, 15.14 -0.13 M-1.36 25.07 C9.74 15.86, 15.01 4.28, 22.33 -0.06 M0.52 23.52 C6.34 17.15, 13.12 8.72, 21.64 0.14 M1 28.63 C8.06 18.11, 18.73 6.89, 26.5 -1.06 M0.53 29.96 C5.49 24.3, 10.53 17.75, 26.04 0.06 M-0.41 36.11 C8.86 22.94, 20.21 11.57, 33.6 -0.82 M0.58 36.98 C12.12 23.54, 23.41 8.78, 32.76 -0.47 M1.43 42.67 C11.37 28.7, 27.21 15.03, 38.08 2.07 M-0.09 43.28 C13.49 28.12, 25.88 11.66, 36.91 -0.03 M-0.98 48.66 C16.03 30.92, 27.29 13, 44.21 1.17 M0.1 49.28 C11.85 33.7, 26.19 18.93, 42.71 -0.89 M0.68 52.6 C11.59 40.48, 21.6 27.88, 46.58 -1.52 M0.82 54.77 C11.28 41.64, 22.75 26.87, 47.31 -0.05 M-0.91 59.4 C12.42 44.83, 25.54 31.69, 53.15 0.64 M-0.29 61.77 C14.46 46.01, 28.57 30.16, 53.2 -0.43 M1.58 65.4 C19.89 41.75, 38.83 18.66, 57.68 -0.79 M0.07 68.14 C13.75 50.39, 30.85 31.44, 58.09 0.04 M1.98 74.85 C19.05 49.92, 41.31 25.97, 62.79 -1.09 M0.03 72.72 C24.17 44.75, 49.16 18.5, 63.25 -0.72 M0.33 80.41 C23.12 50.21, 46.46 23.93, 68.43 1.91 M-0.28 78.49 C24.51 51.88, 50.99 21.05, 69.43 -0.05 M1.26 84.17 C22.14 59.21, 46.56 34.85, 74.89 -0.02 M0.98 84.11 C26.63 54.04, 53.18 24.74, 75.18 0.3 M-1.5 89.86 C29.4 53.54, 61.15 18.26, 79.28 -1.14 M-0.79 90.89 C22.5 65.9, 45.54 40.44, 78.8 1.08 M1.2 95.89 C28.72 65.88, 61.13 29.78, 86.56 -1.58 M-0.86 98.34 C20.06 75.89, 38.75 52.38, 84.64 0.38 M1.72 103.84 C18.35 80.48, 36.33 61.25, 90.03 0.98 M-0.07 103.34 C26 74.98, 53.61 43.73, 91.02 0.53 M-0.58 110.93 C35.02 67.16, 72.1 26.96, 94.31 -0.53 M0.37 109.25 C21.93 83.39, 47.34 55.25, 96.58 -1.04 M-1 115.06 C24.68 89.64, 45.76 63.87, 99.87 1.79 M0.57 115.52 C25.98 85.33, 54.03 54.38, 100.19 -0.92 M-1.03 123.06 C29.16 88.89, 56.55 54.51, 106.01 -1.03 M-0.13 122.62 C41.94 73.28, 84.33 23.24, 107.27 -0.84 M-1.96 127.64 C24.22 100.92, 48.9 70.17, 111.37 1.46 M0.51 127.57 C26.45 97.59, 51.79 67.18, 111.73 -0.8 M-1.12 135.95 C45.67 79.6, 93.65 27.23, 116.25 0.14 M0.82 133.16 C29.48 100.53, 57.9 69.09, 115.63 0.55 M-0.09 142.03 C37.55 98.93, 76.31 54, 122.44 -1.23 M0.37 141.04 C24.32 111.91, 49.78 81.87, 122.37 -0.97 M1.62 147.87 C35.94 102.97, 74.03 58.5, 124.96 -1.43 M-0.3 145.3 C42.92 98.31, 86.71 50.34, 127.86 0.11 M-0.82 151.67 C40.85 105.98, 83.21 58.37, 134.22 -0.79 M0.14 151.52 C45.34 99.85, 90.61 47.31, 132.21 0.38 M2.22 158.04 C30.81 124.55, 55.49 92.35, 137.5 -1.09 M1.64 155.7 C49.11 101.05, 97.01 44.74, 137.51 0.74 M9.05 155.33 C36.61 122.43, 62.21 88.61, 143.88 -1.29 M7.07 156.78 C58.66 97.81, 108.87 39.2, 142.57 -0.96 M13.76 157.39 C55.75 109.88, 95.45 62.53, 147.32 -0.88 M11.66 156.76 C64.27 95.34, 117.68 36.23, 148.11 0.45 M16.56 155.41 C55.38 110.38, 94.34 65.31, 155.01 -0.25 M18.28 156.02 C48.72 121.33, 79.76 87.49, 153.98 -0.25 M23.86 158.19 C66.74 107.77, 110.17 56.9, 158.86 0.27 M22.81 156.86 C60.12 115.35, 95.89 73.22, 158.5 0.65 M30.22 156.11 C82.61 94.52, 137.64 30.52, 163.55 -0.08 M29.25 156.41 C75.75 102.43, 122.43 49.62, 164.66 -0.23 M32.45 157.59 C72.59 110.99, 111.12 65.51, 168.68 -1.56 M33.07 157.03 C63.11 124.29, 89.58 93.32, 168.8 0.67 M39.92 156.63 C75.57 113.38, 115.23 69.83, 175.54 -0.86 M39.86 155.72 C92.6 93.38, 147.09 30.91, 175.75 -0.38 M46.02 155.05 C97.47 93.79, 153.64 32.3, 179.89 -0.84 M43.36 156.25 C94.8 96.79, 145.8 38.08, 180.32 -0.42 M49.2 154.94 C78.21 121.99, 109.02 84.54, 185.82 -0.34 M49.43 156.79 C100.51 96.18, 153.54 35.88, 186.03 -0.45 M56.31 155.95 C101.34 104.3, 147.39 48.3, 191.48 -0.38 M54.02 156.76 C100.47 102.67, 146.03 51.7, 190.18 -0.31 M60.41 155.66 C98.17 113.96, 135.41 70.55, 195.78 -1.05 M59.51 157.59 C100.95 112.27, 141.28 66.04, 197.2 -0.46 M65.15 157.31 C118.17 96.71, 166.01 41.84, 201.89 -0.64 M64.75 156.97 C120.04 95.95, 172.56 33.59, 202 -0.48 M70.19 156.37 C122.48 97.49, 173.28 42.52, 206.24 0.38 M71.28 157.12 C108.11 114.7, 144.89 70.65, 206.82 -0.73 M77.35 154.94 C111.84 116.96, 145.79 77.8, 212.58 0.24 M76.43 156.81 C109.03 119.17, 139.36 84.54, 211.69 0.84 M79.79 155.68 C136.95 95.25, 191.32 32.79, 217.48 -1.02 M81.54 156.36 C115.67 117.92, 147.61 79.31, 217.13 -0.07 M86.55 157.65 C125.34 114.55, 163.64 70.02, 220.87 -0.66 M87.54 155.92 C128.51 110.4, 168.52 62.98, 223.42 -0.19 M90.51 157.34 C145.74 97.68, 194.31 38.8, 229.23 -0.79 M92.47 157 C129.92 111.26, 168.07 66.78, 228.01 -1.1 M96.44 155.24 C137.12 109.38, 178.93 61.81, 234.2 -0.36 M97.74 155.42 C129.75 119.75, 161.27 83.47, 233.67 -0.57 M103.14 156.78 C139.76 116.48, 174.91 76.02, 236.44 1.54 M102.09 156.96 C138.72 114.71, 172.98 74.97, 238.09 1.11 M106.65 157.63 C144.87 115.95, 181 74.09, 245.24 -0.67 M107.84 156.18 C136.07 122.29, 166.34 87.78, 243.6 0.65 M114.36 155.3 C156.23 103.28, 200.01 54.45, 249.68 -0.63 M113.12 157.4 C168.08 95.3, 221.47 34.44, 249.09 0.09 M119.79 155.75 C156.13 113.53, 193.92 72.06, 253.21 -1.06 M118.07 157.01 C146.06 123.98, 172.74 91.83, 253.79 0.58 M123.81 156.54 C177 97.65, 227.37 35.38, 259.26 1.37 M124.15 155.64 C159.85 114.12, 198.68 70.91, 260.18 0.23 M130.78 157.05 C176.82 100.09, 223.76 46.8, 263.89 1.34 M129.78 156.43 C173.45 103.89, 218.25 52.94, 265.98 -0.4 M134.17 155.81 C183.64 98.89, 236.1 40.43, 269.78 0.02 M134.91 155.86 C172.66 113.2, 209.31 70.69, 270.58 -0.45 M141.15 157.14 C174.73 113.95, 212.59 75.28, 275.38 1.05 M140.2 156.25 C178.09 112.12, 217.5 66.81, 275.96 -0.4 M144 157.86 C197.19 96.11, 248.4 39.15, 281.74 0.79 M144.52 156.6 C185.97 108.65, 229.21 59.79, 280.66 -0.64 M151.82 157.48 C191.98 110.02, 231.19 64.54, 285.23 -1.5 M151.25 156.21 C196.64 104.04, 242.73 50.92, 286.02 0.42 M154.83 155.55 C207.46 97.11, 260.13 37.65, 291.53 0.83 M155.06 156.15 C197.06 111.37, 237.17 63.91, 291.95 0.69 M159.63 154.77 C195.48 113.65, 232.8 72.34, 297.57 -0.01 M160.7 155.79 C203.74 104.9, 249.17 52.9, 297.84 -0.17 M167.68 154.75 C210.25 103.3, 256.67 49.95, 302.08 -0.4 M166.21 156.06 C203.75 111.37, 244.28 64.99, 301.85 0.73 M171.52 155.15 C217.55 106.43, 259.74 53.88, 308.83 -0.06 M171.03 155.95 C204.64 115.47, 238.45 76.61, 307.17 -1.11 M175.88 156.54 C219.84 108.39, 263.27 58.3, 312.24 -1.09 M177.03 155.82 C222.69 101.84, 269.15 49.54, 312.44 -0.05 M182.55 157.18 C230.92 100.09, 276.22 46.83, 318.45 -1.35 M181.69 156.38 C220.05 114.36, 257.86 70.09, 318 0.15 M186.41 157.23 C227.6 109.08, 269.39 58.68, 323.82 -0.65 M187.77 156.45 C218.5 118.8, 252.27 81.22, 323.43 0.32 M192.77 155.94 C242.02 100.18, 293.02 42.55, 326.91 1.03 M191.69 155.97 C242.14 103.57, 288.26 47.61, 326.46 2.82 M198.7 155.35 C227.86 121.79, 260.16 86.58, 327.43 8.61 M198.04 156.95 C246.05 100.61, 295.46 43.71, 326.72 8.27 M203.25 158.41 C246.04 110.37, 285.23 63.3, 325.18 13.07 M202.8 157.49 C249.8 102.31, 298.24 47.71, 326.32 15.51 M207.61 155.69 C253.3 105.32, 296.11 53.73, 327.55 20.2 M208.65 155.71 C243.64 117.3, 276.33 77.8, 326.43 20.77 M215.27 158.33 C246.34 117.56, 277.95 80.7, 324.65 27.86 M213.3 157.01 C243.32 122.47, 272.61 89.64, 326.02 26.56 M219.03 158.08 C252.81 116.78, 286.95 80.52, 327.7 30.79 M219.83 156.93 C248.83 121.65, 280.51 87.6, 327.5 33.34 M225.55 155.64 C253.58 122.99, 282.23 92.67, 325.51 36.9 M224.48 155.97 C245.43 132.85, 267.6 107.29, 326.62 38.45 M230.33 156.85 C264.19 116.77, 302.1 75.31, 326.8 44.28 M229.11 156.49 C253.42 129.2, 277.84 102.29, 326.18 45.7 M234.17 157 C254.51 134.68, 274.73 111.22, 328.02 49.65 M235.01 155.58 C257.4 131.37, 280.8 103.93, 327.19 50.51 M242.25 157 C276.39 114.52, 308.63 76.58, 325.1 56.95 M241.31 155.94 C260.86 134.71, 279.88 111.16, 326.03 57.01 M244.55 155.7 C274.71 119.68, 308.45 85.48, 327.81 62.22 M244.86 156.75 C276.86 120.42, 308.97 84.98, 326.13 63.72 M250.92 158.1 C280.25 122.72, 310.96 88.53, 328.25 69.96 M250.58 156.54 C269.69 136.34, 288.3 114.65, 325.92 68.36 M255.51 155.63 C281.87 126.35, 307.52 97.74, 327.2 74.07 M255.34 156.08 C281.4 128.14, 304.89 99.95, 326.49 75.53 M263.84 154.38 C280.63 137.5, 295.85 115.01, 325.93 82.35 M262.37 155.23 C281.98 133.81, 299.65 113.79, 326.74 81.79 M265.23 155.35 C287.44 131.65, 305.36 109.87, 325.9 89.05 M267.06 155.84 C284.02 138.27, 298.1 121.58, 326.58 86.81 M271.87 154.69 C287.3 140.01, 300.46 124.17, 327.2 91.78 M273.44 156.62 C288.86 135.94, 306.39 116.06, 326.64 93 M279.27 155.99 C292.33 140.12, 307.08 122.63, 324.99 99.87 M277.95 156.01 C288.4 144.16, 301.31 130.84, 326.1 100.37 M281.28 154.5 C297.27 136.59, 314.73 119.21, 327.85 107.28 M283.88 155.03 C292.59 143.73, 304.38 132.76, 326.45 106.16 M286.57 157.36 C298.37 142.74, 313.56 129.08, 325.59 113.14 M287.23 156.23 C299.27 142.03, 311.55 129, 326.67 111.95 M293.02 156.65 C303.28 146.22, 313.12 132.2, 325 118.25 M292.42 157.22 C305.74 143.04, 317.98 127.49, 326.3 118.85 M299.44 157.85 C306 147.9, 314.54 137.7, 328.21 122.07 M299.45 155.85 C307.79 146.63, 317.27 136.3, 327.25 123.01 M305.4 156.36 C310.25 147.72, 317.19 140.78, 325.18 130.98 M303.07 157.35 C312.55 147.31, 319.38 137.41, 327.62 130.61 M309.56 154.49 C314.6 153.36, 316 148.32, 328.05 135.27 M308.48 155.9 C313.36 152.38, 317.19 147.03, 325.45 137.41 M314.16 157.68 C319.12 152.71, 320.09 145.93, 326.93 141.66 M315.16 157.52 C317.69 152.64, 320.63 149.94, 325.9 141.92 M319.99 155.6 C322.66 152.64, 325.51 149.77, 326.11 149.2 M319.73 156.68 C321.9 154.13, 324.04 151.95, 326.35 148.58" stroke="#228be6" stroke-width="0.5" fill="none"></path><path d="M0.48 0.3 C105.78 1.48, 214.45 3.37, 322.62 -0.11 M-0.07 -0.07 C85.93 0.05, 170.57 -0.63, 324.44 -0.19 M324.05 0.62 C324.11 57.76, 325 112.16, 325.95 152.73 M323.74 0.48 C324.51 54.91, 324.55 110.3, 324.78 153.87 M323.62 154.84 C205.35 152.7, 88.99 154.4, -0.14 153.91 M324.01 154.97 C220.51 155.66, 116.34 156.54, 0.4 154.38 M0.59 155.44 C0.57 115.81, 1.29 74.62, 0.61 1.89 M-0.86 155.38 C0.16 117.48, 1.22 78.69, -0.72 -0.63" stroke="#000000" stroke-width="1" fill="none"></path></g><g transform="translate(621.06640625 974.33203125) rotate(0 157 37.5)"><text x="157" y="18" font-family="Virgil, Segoe UI Emoji" font-size="20px" fill="#000000" text-anchor="middle" style="white-space: pre;" direction="ltr">Browserless</text><text x="157" y="43" font-family="Virgil, Segoe UI Emoji" font-size="20px" fill="#000000" text-anchor="middle" style="white-space: pre;" direction="ltr">[Container: Browserless]</text><text x="157" y="68" font-family="Virgil, Segoe UI Emoji" font-size="20px" fill="#000000" text-anchor="middle" style="white-space: pre;" direction="ltr">无头浏览器</text></g><g stroke-linecap="round"><g transform="translate(773.515625 927.111328125) rotate(0 0.35044964148664803 -60.4068417295814)"><path d="M1.09 0.66 C0.84 -19.71, -0.23 -101.25, -0.39 -121.47" stroke="#000000" stroke-width="1.5" fill="none" stroke-dasharray="8 9"></path></g><g transform="translate(773.515625 927.111328125) rotate(0 0.35044964148664803 -60.4068417295814)"><path d="M11.27 -94.75 C6.1 -104.71, 3.28 -115.15, 0.88 -122.69" stroke="#000000" stroke-width="1.5" fill="none"></path></g><g transform="translate(773.515625 927.111328125) rotate(0 0.35044964148664803 -60.4068417295814)"><path d="M-9.25 -94.53 C-6.41 -104.76, -1.23 -115.29, 0.88 -122.69" stroke="#000000" stroke-width="1.5" fill="none"></path></g></g><g transform="translate(737.203125 859.201171875) rotate(0 40.5 14.5)"><text x="40.5" y="21" font-family="Virgil, Segoe UI Emoji" font-size="20px" fill="#000000" text-anchor="middle" style="white-space: pre;" direction="ltr">隧道代理</text></g><g stroke-linecap="round"><g transform="translate(944.8203125 1006.615234375) rotate(0 -17.164207382077166 -410.9969185642897)"><path d="M0.95 1.1 C6.23 -8.39, 27.03 20.57, 32.1 -57.68 C37.16 -135.93, 46.73 -386.74, 31.36 -468.42 C16 -550.09, -42.53 -488.61, -60.1 -547.72 C-77.66 -606.84, -71.53 -777.16, -74.05 -823.1" stroke="#000000" stroke-width="1.5" fill="none" stroke-dasharray="8 9"></path></g><g transform="translate(944.8203125 1006.615234375) rotate(0 -17.164207382077166 -410.9969185642897)"><path d="M-61.62 -793.38 C-66.03 -804.93, -69.94 -813.29, -73.18 -821.3" stroke="#000000" stroke-width="1.5" fill="none"></path></g><g transform="translate(944.8203125 1006.615234375) rotate(0 -17.164207382077166 -410.9969185642897)"><path d="M-82.14 -793.14 C-79.64 -804.93, -76.65 -813.37, -73.18 -821.3" stroke="#000000" stroke-width="1.5" fill="none"></path></g></g><g transform="translate(833.81640625 440.228515625) rotate(0 50.5 14.5)"><text x="50.5" y="21" font-family="Virgil, Segoe UI Emoji" font-size="20px" fill="#000000" text-anchor="middle" style="white-space: pre;" direction="ltr">获取源数据</text></g></svg>